<svg xmlns="http://www.w3.org/2000/svg" xmlns:xlink="http://www.w3.org/1999/xlink" xmlns:lucid="lucid" width="1440" height="762"><g transform="translate(-20 0)" lucid:page-tab-id="smDKooil~_Un"><path d="M40 240h400v461H40z" stroke="#333" stroke-width="2" fill="#fff"/><path d="M40 277.6h400M40 435.4h400" stroke="#333" stroke-width="2" fill="none"/><use xlink:href="#a" transform="matrix(1,0,0,1,48,248) translate(166.075 14.6)"/><use xlink:href="#b" transform="matrix(1,0,0,1,52,285.6) translate(0 53)"/><use xlink:href="#c" transform="matrix(1,0,0,1,52,285.6) translate(0 74.60000000000001)"/><use xlink:href="#d" transform="matrix(1,0,0,1,52,285.6) translate(15.5 74.60000000000001)"/><use xlink:href="#e" transform="matrix(1,0,0,1,52,285.6) translate(80.5 74.60000000000001)"/><use xlink:href="#f" transform="matrix(1,0,0,1,52,285.6) translate(109.45 74.60000000000001)"/><use xlink:href="#g" transform="matrix(1,0,0,1,52,285.6) translate(122.41296296296296 74.60000000000001)"/><use xlink:href="#c" transform="matrix(1,0,0,1,52,285.6) translate(0 96.20000000000002)"/><use xlink:href="#h" transform="matrix(1,0,0,1,52,285.6) translate(15.5 96.20000000000002)"/><use xlink:href="#i" transform="matrix(1,0,0,1,52,285.6) translate(97.45 96.20000000000002)"/><use xlink:href="#f" transform="matrix(1,0,0,1,52,285.6) translate(152.4 96.20000000000002)"/><use xlink:href="#j" transform="matrix(1,0,0,1,52,285.6) translate(165.36296296296297 96.20000000000002)"/><use xlink:href="#k" transform="matrix(1,0,0,1,52,443.40000000000003) translate(0 53.00000000000001)"/><use xlink:href="#l" transform="matrix(1,0,0,1,52,443.40000000000003) translate(0 74.60000000000001)"/><use xlink:href="#m" transform="matrix(1,0,0,1,52,443.40000000000003) translate(15.5 74.60000000000001)"/><use xlink:href="#n" transform="matrix(1,0,0,1,52,443.40000000000003) translate(84.30000000000001 74.60000000000001)"/><use xlink:href="#f" transform="matrix(1,0,0,1,52,443.40000000000003) translate(136.20000000000002 74.60000000000001)"/><use xlink:href="#o" transform="matrix(1,0,0,1,52,443.40000000000003) translate(149.16296296296298 74.60000000000001)"/><use xlink:href="#l" transform="matrix(1,0,0,1,52,443.40000000000003) translate(0 96.20000000000002)"/><use xlink:href="#p" transform="matrix(1,0,0,1,52,443.40000000000003) translate(15.5 96.20000000000002)"/><use xlink:href="#q" transform="matrix(1,0,0,1,52,443.40000000000003) translate(117.25 96.20000000000002)"/><use xlink:href="#n" transform="matrix(1,0,0,1,52,443.40000000000003) translate(142.2 96.20000000000002)"/><use xlink:href="#f" transform="matrix(1,0,0,1,52,443.40000000000003) translate(194.1 96.20000000000002)"/><use xlink:href="#o" transform="matrix(1,0,0,1,52,443.40000000000003) translate(207.06296296296296 96.20000000000002)"/><use xlink:href="#l" transform="matrix(1,0,0,1,52,443.40000000000003) translate(0 117.80000000000003)"/><use xlink:href="#r" transform="matrix(1,0,0,1,52,443.40000000000003) translate(15.5 117.80000000000003)"/><use xlink:href="#s" transform="matrix(1,0,0,1,52,443.40000000000003) translate(108.3 117.80000000000003)"/><use xlink:href="#n" transform="matrix(1,0,0,1,52,443.40000000000003) translate(133.25 117.80000000000003)"/><use xlink:href="#f" transform="matrix(1,0,0,1,52,443.40000000000003) translate(185.15 117.80000000000003)"/><use xlink:href="#t" transform="matrix(1,0,0,1,52,443.40000000000003) translate(198.11296296296297 117.80000000000003)"/><use xlink:href="#l" transform="matrix(1,0,0,1,52,443.40000000000003) translate(0 139.4)"/><use xlink:href="#u" transform="matrix(1,0,0,1,52,443.40000000000003) translate(15.5 139.4)"/><use xlink:href="#v" transform="matrix(1,0,0,1,52,443.40000000000003) translate(118.3 139.4)"/><use xlink:href="#n" transform="matrix(1,0,0,1,52,443.40000000000003) translate(202.25 139.4)"/><use xlink:href="#f" transform="matrix(1,0,0,1,52,443.40000000000003) translate(254.15 139.4)"/><use xlink:href="#w" transform="matrix(1,0,0,1,52,443.40000000000003) translate(267.11296296296297 139.4)"/><use xlink:href="#l" transform="matrix(1,0,0,1,52,443.40000000000003) translate(0 161.00000000000003)"/><use xlink:href="#x" transform="matrix(1,0,0,1,52,443.40000000000003) translate(15.5 161.00000000000003)"/><use xlink:href="#y" transform="matrix(1,0,0,1,52,443.40000000000003) translate(80.25000000000001 161.00000000000003)"/><use xlink:href="#l" transform="matrix(1,0,0,1,52,443.40000000000003) translate(0 182.6)"/><use xlink:href="#z" transform="matrix(1,0,0,1,52,443.40000000000003) translate(15.5 182.6)"/><use xlink:href="#A" transform="matrix(1,0,0,1,52,443.40000000000003) translate(184.79999999999998 182.6)"/><use xlink:href="#B" transform="matrix(1,0,0,1,52,443.40000000000003) translate(0 204.20000000000002)"/><use xlink:href="#C" transform="matrix(1,0,0,1,52,443.40000000000003) translate(10.95 204.20000000000002)"/><use xlink:href="#D" transform="matrix(1,0,0,1,52,443.40000000000003) translate(90.25000000000001 204.20000000000002)"/><use xlink:href="#f" transform="matrix(1,0,0,1,52,443.40000000000003) translate(132.520987654321 204.20000000000002)"/><use xlink:href="#E" transform="matrix(1,0,0,1,52,443.40000000000003) translate(145.48395061728397 204.20000000000002)"/><path d="M960 240h480v502H960z" stroke="#333" stroke-width="2" fill="#fff"/><path d="M960 277.6h480M960 487.47h480" stroke="#333" stroke-width="2" fill="none"/><g><use xlink:href="#F" transform="matrix(1,0,0,1,968,248) translate(192.05 14.6)"/></g><g><use xlink:href="#G" transform="matrix(1,0,0,1,972,285.6) translate(0 36.46666666666665)"/><use xlink:href="#H" transform="matrix(1,0,0,1,972,285.6) translate(0 57.88888888888887)"/><use xlink:href="#I" transform="matrix(1,0,0,1,972,285.6) translate(10.814814814814817 57.88888888888887)"/><use xlink:href="#J" transform="matrix(1,0,0,1,972,285.6) translate(92.69135802469137 57.88888888888887)"/><use xlink:href="#K" transform="matrix(1,0,0,1,972,285.6) translate(128.19753086419755 57.88888888888887)"/><use xlink:href="#L" transform="matrix(1,0,0,1,972,285.6) translate(141.5308641975309 57.88888888888887)"/><use xlink:href="#M" transform="matrix(1,0,0,1,972,285.6) translate(189.441975308642 57.88888888888887)"/><use xlink:href="#N" transform="matrix(1,0,0,1,972,285.6) translate(203.61975308641976 57.88888888888887)"/><use xlink:href="#O" transform="matrix(1,0,0,1,972,285.6) translate(219.5753086419753 57.88888888888887)"/><use xlink:href="#H" transform="matrix(1,0,0,1,972,285.6) translate(0 79.22222222222221)"/><use xlink:href="#P" transform="matrix(1,0,0,1,972,285.6) translate(10.814814814814817 79.22222222222221)"/><use xlink:href="#Q" transform="matrix(1,0,0,1,972,285.6) translate(195.4567901234568 79.22222222222221)"/><use xlink:href="#K" transform="matrix(1,0,0,1,972,285.6) translate(228.98765432098767 79.22222222222221)"/><use xlink:href="#R" transform="matrix(1,0,0,1,972,285.6) translate(242.32098765432102 79.22222222222221)"/><use xlink:href="#H" transform="matrix(1,0,0,1,972,285.6) translate(0 100.55555555555556)"/><use xlink:href="#S" transform="matrix(1,0,0,1,972,285.6) translate(10.814814814814817 100.55555555555556)"/><use xlink:href="#Q" transform="matrix(1,0,0,1,972,285.6) translate(205.38271604938276 100.55555555555556)"/><use xlink:href="#K" transform="matrix(1,0,0,1,972,285.6) translate(238.91358024691363 100.55555555555556)"/><use xlink:href="#T" transform="matrix(1,0,0,1,972,285.6) translate(252.24691358024697 100.55555555555556)"/><use xlink:href="#H" transform="matrix(1,0,0,1,972,285.6) translate(0 121.8888888888889)"/><use xlink:href="#U" transform="matrix(1,0,0,1,972,285.6) translate(10.814814814814817 121.8888888888889)"/><use xlink:href="#V" transform="matrix(1,0,0,1,972,285.6) translate(145.87654320987656 121.8888888888889)"/><use xlink:href="#K" transform="matrix(1,0,0,1,972,285.6) translate(194.22222222222223 121.8888888888889)"/><use xlink:href="#T" transform="matrix(1,0,0,1,972,285.6) translate(207.55555555555557 121.8888888888889)"/><use xlink:href="#b" transform="matrix(1,0,0,1,972,285.6) translate(0 143.4)"/><use xlink:href="#W" transform="matrix(1,0,0,1,972,285.6) translate(0 164.82222222222225)"/><use xlink:href="#X" transform="matrix(1,0,0,1,972,285.6) translate(15.308641975308644 164.82222222222225)"/><use xlink:href="#Q" transform="matrix(1,0,0,1,972,285.6) translate(59.70370370370371 164.82222222222225)"/><use xlink:href="#K" transform="matrix(1,0,0,1,972,285.6) translate(93.23456790123458 164.82222222222225)"/><use xlink:href="#Y" transform="matrix(1,0,0,1,972,285.6) translate(106.56790123456791 164.82222222222225)"/></g><g><use xlink:href="#k" transform="matrix(1,0,0,1,972,495.4666666666667) translate(0 36.70000000000001)"/><use xlink:href="#l" transform="matrix(1,0,0,1,972,495.4666666666667) translate(0 58.30000000000001)"/><use xlink:href="#Z" transform="matrix(1,0,0,1,972,495.4666666666667) translate(15.5 58.30000000000001)"/><use xlink:href="#aa" transform="matrix(1,0,0,1,972,495.4666666666667) translate(82.4 58.30000000000001)"/><use xlink:href="#f" transform="matrix(1,0,0,1,972,495.4666666666667) translate(132.4 58.30000000000001)"/><use xlink:href="#w" transform="matrix(1,0,0,1,972,495.4666666666667) translate(145.36296296296297 58.30000000000001)"/><use xlink:href="#l" transform="matrix(1,0,0,1,972,495.4666666666667) translate(0 79.90000000000002)"/><use xlink:href="#ab" transform="matrix(1,0,0,1,972,495.4666666666667) translate(15.5 79.90000000000002)"/><use xlink:href="#ac" transform="matrix(1,0,0,1,972,495.4666666666667) translate(90.4 79.90000000000002)"/><use xlink:href="#aa" transform="matrix(1,0,0,1,972,495.4666666666667) translate(217.05 79.90000000000002)"/><use xlink:href="#f" transform="matrix(1,0,0,1,972,495.4666666666667) translate(267.05 79.90000000000002)"/><use xlink:href="#w" transform="matrix(1,0,0,1,972,495.4666666666667) translate(280.012962962963 79.90000000000002)"/><use xlink:href="#l" transform="matrix(1,0,0,1,972,495.4666666666667) translate(0 101.50000000000003)"/><use xlink:href="#ad" transform="matrix(1,0,0,1,972,495.4666666666667) translate(15.5 101.50000000000003)"/><use xlink:href="#ae" transform="matrix(1,0,0,1,972,495.4666666666667) translate(69.4 101.50000000000003)"/><use xlink:href="#l" transform="matrix(1,0,0,1,972,495.4666666666667) translate(0 123.10000000000002)"/><use xlink:href="#af" transform="matrix(1,0,0,1,972,495.4666666666667) translate(15.5 123.10000000000002)"/><use xlink:href="#ae" transform="matrix(1,0,0,1,972,495.4666666666667) translate(78.4 123.10000000000002)"/><use xlink:href="#l" transform="matrix(1,0,0,1,972,495.4666666666667) translate(0 144.70000000000002)"/><use xlink:href="#ag" transform="matrix(1,0,0,1,972,495.4666666666667) translate(15.5 144.70000000000002)"/><use xlink:href="#ae" transform="matrix(1,0,0,1,972,495.4666666666667) translate(78.4 144.70000000000002)"/><use xlink:href="#l" transform="matrix(1,0,0,1,972,495.4666666666667) translate(0 166.3)"/><use xlink:href="#ah" transform="matrix(1,0,0,1,972,495.4666666666667) translate(15.5 166.3)"/><use xlink:href="#ai" transform="matrix(1,0,0,1,972,495.4666666666667) translate(102.35000000000001 166.3)"/><use xlink:href="#l" transform="matrix(1,0,0,1,972,495.4666666666667) translate(0 187.9)"/><use xlink:href="#aj" transform="matrix(1,0,0,1,972,495.4666666666667) translate(15.5 187.9)"/><use xlink:href="#ae" transform="matrix(1,0,0,1,972,495.4666666666667) translate(147.9 187.9)"/><use xlink:href="#ak" transform="matrix(1,0,0,1,972,495.4666666666667) translate(0 209.5)"/></g><path d="M300 20h360v160H300z" stroke="#333" stroke-width="2" fill="#fff"/><path d="M300 79.2h360" stroke="#333" stroke-width="2" fill="none"/><g><use xlink:href="#al" transform="matrix(1,0,0,1,308,28) translate(113.57499999999999 14.799999999999999)"/><use xlink:href="#am" transform="matrix(1,0,0,1,308,28) translate(102.125 36.4)"/></g><g><use xlink:href="#an" transform="matrix(1,0,0,1,312,87.2) translate(0 46.1)"/><use xlink:href="#ao" transform="matrix(1,0,0,1,312,87.2) translate(179.79999999999995 46.1)"/></g><path d="M288.04 238.5v-9.05m0-9.06V210h7.7m9.07 0h18.1m9.06 0h18.1m9.06 0h18.1m9.06 0h3.05v-6" stroke="#333" fill="none"/><path d="M288.54 239h-1v-.5h1z" fill="#333"/><path d="M389.33 181.98l12.73 21.52H376.6z" stroke="#333" fill="#fff"/><path d="M647.67 238.5v-8.98m0-8.98V210h-7.43m-8.98 0H613.3m-8.98 0h-17.96m-8.98 0h-2.98v-6" stroke="#333" fill="none"/><path d="M648.17 239h-1v-.5h1z" fill="#333"/><path d="M574.4 181.98l12.73 21.52h-25.46z" stroke="#333" fill="#fff"/><path d="M520 240h400v380H520z" stroke="#333" stroke-width="2" fill="#fff"/><path d="M520 277.6h400M520 438h400" stroke="#333" stroke-width="2" fill="none"/><g><use xlink:href="#ap" transform="matrix(1,0,0,1,528,248) translate(151.625 14.6)"/></g><g><use xlink:href="#aq" transform="matrix(1,0,0,1,532,285.6) translate(0 43.69999999999999)"/><use xlink:href="#ar" transform="matrix(1,0,0,1,532,285.6) translate(0 65.3)"/><use xlink:href="#as" transform="matrix(1,0,0,1,532,285.6) translate(10.95 65.3)"/><use xlink:href="#at" transform="matrix(1,0,0,1,532,285.6) translate(66.9 65.3)"/><use xlink:href="#b" transform="matrix(1,0,0,1,532,285.6) translate(0 86.9)"/><use xlink:href="#c" transform="matrix(1,0,0,1,532,285.6) translate(0 108.5)"/><use xlink:href="#d" transform="matrix(1,0,0,1,532,285.6) translate(15.5 108.5)"/><use xlink:href="#e" transform="matrix(1,0,0,1,532,285.6) translate(80.5 108.5)"/><use xlink:href="#f" transform="matrix(1,0,0,1,532,285.6) translate(109.45 108.5)"/><use xlink:href="#j" transform="matrix(1,0,0,1,532,285.6) translate(122.41296296296296 108.5)"/></g><g><use xlink:href="#k" transform="matrix(1,0,0,1,532,446.00000000000006) translate(0 43.39999999999999)"/><use xlink:href="#l" transform="matrix(1,0,0,1,532,446.00000000000006) translate(0 65)"/><use xlink:href="#au" transform="matrix(1,0,0,1,532,446.00000000000006) translate(15.5 65)"/><use xlink:href="#av" transform="matrix(1,0,0,1,532,446.00000000000006) translate(146.10000000000002 65)"/><use xlink:href="#n" transform="matrix(1,0,0,1,532,446.00000000000006) translate(208.00000000000003 65)"/><use xlink:href="#f" transform="matrix(1,0,0,1,532,446.00000000000006) translate(259.90000000000003 65)"/><use xlink:href="#o" transform="matrix(1,0,0,1,532,446.00000000000006) translate(272.862962962963 65)"/><use xlink:href="#l" transform="matrix(1,0,0,1,532,446.00000000000006) translate(0 86.6)"/><use xlink:href="#aw" transform="matrix(1,0,0,1,532,446.00000000000006) translate(15.5 86.6)"/><use xlink:href="#ax" transform="matrix(1,0,0,1,532,446.00000000000006) translate(124.30000000000001 86.6)"/><use xlink:href="#ay" transform="matrix(1,0,0,1,532,446.00000000000006) translate(175.20000000000002 86.6)"/><use xlink:href="#l" transform="matrix(1,0,0,1,532,446.00000000000006) translate(0 108.20000000000002)"/><use xlink:href="#aw" transform="matrix(1,0,0,1,532,446.00000000000006) translate(15.5 108.20000000000002)"/><use xlink:href="#az" transform="matrix(1,0,0,1,532,446.00000000000006) translate(124.30000000000001 108.20000000000002)"/><use xlink:href="#aA" transform="matrix(1,0,0,1,532,446.00000000000006) translate(169.25 108.20000000000002)"/><use xlink:href="#aB" transform="matrix(1,0,0,1,532,446.00000000000006) translate(193.2 108.20000000000002)"/><use xlink:href="#aC" transform="matrix(1,0,0,1,532,446.00000000000006) translate(258.1 108.20000000000002)"/><use xlink:href="#l" transform="matrix(1,0,0,1,532,446.00000000000006) translate(0 129.8)"/><use xlink:href="#z" transform="matrix(1,0,0,1,532,446.00000000000006) translate(15.5 129.8)"/><use xlink:href="#ao" transform="matrix(1,0,0,1,532,446.00000000000006) translate(184.79999999999998 129.8)"/></g><path d="M518.5 253.1l-47.13.8" stroke="#333" fill="none"/><path d="M519 253.6h-.5l-.02-1h.52z" fill="#333"/><path d="M441.7 254.4l14.6-15.1 15.4 14.58-14.9 15.1z" stroke="#333" fill="#333"/><path d="M1095.13 208.63V60.53c0-6.62-5.37-12-12-12H661.5" stroke="#333" fill="none"/><path d="M1095.13 238.3l-14.85-14.86 14.85-15.15 14.85 15.14z" stroke="#333" fill="#fff"/><path d="M661.5 49.03h-.5v-1h.5z" fill="#333"/><defs><path fill="#333" d="M169-182c-1-43-94-46-97-3 18 66 151 10 154 114 3 95-165 93-204 36-6-8-10-19-12-30l50-8c3 46 112 56 116 5-17-69-150-10-154-114-4-87 153-88 188-35 5 8 8 18 10 28" id="aD"/><path fill="#333" d="M115-3C79 11 28 4 28-45v-112H4v-33h27l15-45h31v45h36v33H77v99c-1 23 16 31 38 25v30" id="aE"/><path fill="#333" d="M135-150c-39-12-60 13-60 57V0H25l-1-190h47c2 13-1 29 3 40 6-28 27-53 61-41v41" id="aF"/><path fill="#333" d="M25-224v-37h50v37H25zM25 0v-190h50V0H25" id="aG"/><path fill="#333" d="M135-194c87-1 58 113 63 194h-50c-7-57 23-157-34-157-59 0-34 97-39 157H25l-1-190h47c2 12-1 28 3 38 12-26 28-41 61-42" id="aH"/><path fill="#333" d="M195-6C206 82 75 100 31 46c-4-6-6-13-8-21l49-6c3 16 16 24 34 25 40 0 42-37 40-79-11 22-30 35-61 35-53 0-70-43-70-97 0-56 18-96 73-97 30 0 46 14 59 34l2-30h47zm-90-29c32 0 41-27 41-63 0-35-9-62-40-62-32 0-39 29-40 63 0 36 9 62 39 62" id="aI"/><g id="a"><use transform="matrix(0.05,0,0,0.05,0,0)" xlink:href="#aD"/><use transform="matrix(0.05,0,0,0.05,12,0)" xlink:href="#aE"/><use transform="matrix(0.05,0,0,0.05,17.95,0)" xlink:href="#aF"/><use transform="matrix(0.05,0,0,0.05,24.95,0)" xlink:href="#aG"/><use transform="matrix(0.05,0,0,0.05,29.950000000000003,0)" xlink:href="#aH"/><use transform="matrix(0.05,0,0,0.05,40.9,0)" xlink:href="#aI"/></g><path fill="#333" d="M24-248c93 1 206-16 204 79-1 75-69 88-152 82V0H24v-248zm52 121c47 0 100 7 100-41 0-47-54-39-100-39v80" id="aJ"/><path fill="#333" d="M110-194c64 0 96 36 96 99 0 64-35 99-97 99-61 0-95-36-95-99 0-62 34-99 96-99zm-1 164c35 0 45-28 45-65 0-40-10-65-43-65-34 0-45 26-45 65 0 36 10 65 43 65" id="aK"/><path fill="#333" d="M135-194c53 0 70 44 70 98 0 56-19 98-73 100-31 1-45-17-59-34 3 33 2 69 2 105H25l-1-265h48c2 10 0 23 3 31 11-24 29-35 60-35zM114-30c33 0 39-31 40-66 0-38-9-64-40-64-56 0-55 130 0 130" id="aL"/><path fill="#333" d="M185-48c-13 30-37 53-82 52C43 2 14-33 14-96s30-98 90-98c62 0 83 45 84 108H66c0 31 8 55 39 56 18 0 30-7 34-22zm-45-69c5-46-57-63-70-21-2 6-4 13-4 21h74" id="aM"/><path fill="#333" d="M137-138c1-29-70-34-71-4 15 46 118 7 119 86 1 83-164 76-172 9l43-7c4 19 20 25 44 25 33 8 57-30 24-41C81-84 22-81 20-136c-2-80 154-74 161-7" id="aN"/><path fill="#333" d="M35-132v-50h50v50H35zM35 0v-49h50V0H35" id="aO"/><g id="b"><use transform="matrix(0.05,0,0,0.05,0,0)" xlink:href="#aJ"/><use transform="matrix(0.05,0,0,0.05,12,0)" xlink:href="#aF"/><use transform="matrix(0.05,0,0,0.05,19,0)" xlink:href="#aK"/><use transform="matrix(0.05,0,0,0.05,29.950000000000003,0)" xlink:href="#aL"/><use transform="matrix(0.05,0,0,0.05,40.900000000000006,0)" xlink:href="#aM"/><use transform="matrix(0.05,0,0,0.05,50.900000000000006,0)" xlink:href="#aF"/><use transform="matrix(0.05,0,0,0.05,57.900000000000006,0)" xlink:href="#aE"/><use transform="matrix(0.05,0,0,0.05,63.85,0)" xlink:href="#aG"/><use transform="matrix(0.05,0,0,0.05,68.85000000000001,0)" xlink:href="#aM"/><use transform="matrix(0.05,0,0,0.05,78.85000000000001,0)" xlink:href="#aN"/><use transform="matrix(0.05,0,0,0.05,88.85000000000001,0)" xlink:href="#aO"/></g><path fill="#333" d="M118-107v75H92v-75H18v-26h74v-75h26v75h74v26h-74" id="aP"/><use transform="matrix(0.05,0,0,0.05,0,0)" xlink:href="#aP" id="c"/><path fill="#333" d="M30 0v-248h33v221h125V0H30" id="aQ"/><path fill="#333" d="M100-194c63 0 86 42 84 106H49c0 40 14 67 53 68 26 1 43-12 49-29l28 8c-11 28-37 45-77 45C44 4 14-33 15-96c1-61 26-98 85-98zm52 81c6-60-76-77-97-28-3 7-6 17-6 28h103" id="aR"/><path fill="#333" d="M117-194c89-4 53 116 60 194h-32v-121c0-31-8-49-39-48C34-167 62-67 57 0H25l-1-190h30c1 10-1 24 2 32 11-22 29-35 61-36" id="aS"/><path fill="#333" d="M177-190C167-65 218 103 67 71c-23-6-38-20-44-43l32-5c15 47 100 32 89-28v-30C133-14 115 1 83 1 29 1 15-40 15-95c0-56 16-97 71-98 29-1 48 16 59 35 1-10 0-23 2-32h30zM94-22c36 0 50-32 50-73 0-42-14-75-50-75-39 0-46 34-46 75s6 73 46 73" id="aT"/><path fill="#333" d="M59-47c-2 24 18 29 38 22v24C64 9 27 4 27-40v-127H5v-23h24l9-43h21v43h35v23H59v120" id="aU"/><path fill="#333" d="M106-169C34-169 62-67 57 0H25v-261h32l-1 103c12-21 28-36 61-36 89 0 53 116 60 194h-32v-121c2-32-8-49-39-48" id="aV"/><path fill="#333" d="M33-154v-36h34v36H33zM33 0v-36h34V0H33" id="aW"/><g id="d"><use transform="matrix(0.05,0,0,0.05,0,0)" xlink:href="#aQ"/><use transform="matrix(0.05,0,0,0.05,10,0)" xlink:href="#aR"/><use transform="matrix(0.05,0,0,0.05,20,0)" xlink:href="#aS"/><use transform="matrix(0.05,0,0,0.05,30,0)" xlink:href="#aT"/><use transform="matrix(0.05,0,0,0.05,40,0)" xlink:href="#aU"/><use transform="matrix(0.05,0,0,0.05,45,0)" xlink:href="#aV"/><use transform="matrix(0.05,0,0,0.05,55,0)" xlink:href="#aW"/></g><path fill="#333" d="M24-231v-30h32v30H24zM24 0v-190h32V0H24" id="aX"/><g id="e"><use transform="matrix(0.05,0,0,0.05,0,0)" xlink:href="#aX"/><use transform="matrix(0.05,0,0,0.05,3.95,0)" xlink:href="#aS"/><use transform="matrix(0.05,0,0,0.05,13.949999999999998,0)" xlink:href="#aU"/></g><path fill="#b2b2b2" d="M-20 4l123-265h28L8 4h-28" id="aY"/><g id="f"><use transform="matrix(0.04320987654320988,0,0,0.04320987654320988,0,0)" xlink:href="#aY"/><use transform="matrix(0.04320987654320988,0,0,0.04320987654320988,4.320987654320988,0)" xlink:href="#aY"/></g><path fill="#b2b2b2" d="M66-151c12-25 30-51 66-40l-6 26C45-176 58-65 38 0H6l36-190h30" id="aZ"/><path fill="#b2b2b2" d="M111-194c62-3 86 47 72 106H45c-7 38 6 69 45 68 27-1 43-14 53-32l24 11C152-15 129 4 87 4 38 3 12-23 12-71c0-70 32-119 99-123zm44 81c14-66-71-72-95-28-4 8-8 17-11 28h106" id="ba"/><path fill="#b2b2b2" d="M165-48c-4 18 1 34 23 27l-3 20c-29 8-62 0-52-35h-2C116-14 99 4 63 4 30 4 8-16 8-49c0-68 71-67 138-67 10-26 0-56-31-54-26 1-42 9-47 31l-32-5c8-67 160-71 144 15-5 28-9 54-15 81zM42-50c3 52 80 24 89-6 7-12 7-24 11-38-47 1-103-4-100 44" id="bb"/><path fill="#b2b2b2" d="M133-28C103 26-5 8 13-77c13-62 24-115 90-117 29-1 46 15 56 35l19-102h32L160 0h-30zM45-64c-2 27 10 43 35 43 54-1 69-50 69-103 0-29-15-46-42-46-53-1-58 58-62 106" id="bc"/><path fill="#b2b2b2" d="M18-82l6-28h88l-6 28H18" id="bd"/><path fill="#b2b2b2" d="M30-147c31-64 166-65 159 27C183-49 158 1 86 4 9 8 1-88 30-147zM88-20c53 0 68-48 68-100 0-31-11-51-44-50-52 1-68 46-68 97 0 32 13 53 44 53" id="be"/><path fill="#b2b2b2" d="M67-158c22-48 132-52 116 29L158 0h-32l25-140c3-38-53-32-70-12C52-117 51-52 38 0H6l36-190h30" id="bf"/><path fill="#b2b2b2" d="M6 0l50-261h32L37 0H6" id="bg"/><path fill="#b2b2b2" d="M198-190L69 30C53 58 25 83-20 72c4-11-1-27 19-22 33-1 43-29 59-52L20-190h32L79-34l84-156h35" id="bh"/><g id="g"><use transform="matrix(0.04320987654320988,0,0,0.04320987654320988,0,0)" xlink:href="#aZ"/><use transform="matrix(0.04320987654320988,0,0,0.04320987654320988,5.1419753086419755,0)" xlink:href="#ba"/><use transform="matrix(0.04320987654320988,0,0,0.04320987654320988,13.783950617283953,0)" xlink:href="#bb"/><use transform="matrix(0.04320987654320988,0,0,0.04320987654320988,22.425925925925934,0)" xlink:href="#bc"/><use transform="matrix(0.04320987654320988,0,0,0.04320987654320988,31.067901234567906,0)" xlink:href="#bd"/><use transform="matrix(0.04320987654320988,0,0,0.04320987654320988,36.20987654320988,0)" xlink:href="#be"/><use transform="matrix(0.04320987654320988,0,0,0.04320987654320988,44.851851851851855,0)" xlink:href="#bf"/><use transform="matrix(0.04320987654320988,0,0,0.04320987654320988,53.49382716049383,0)" xlink:href="#bg"/><use transform="matrix(0.04320987654320988,0,0,0.04320987654320988,56.90740740740741,0)" xlink:href="#bh"/></g><path fill="#333" d="M212-179c-10-28-35-45-73-45-59 0-87 40-87 99 0 60 29 101 89 101 43 0 62-24 78-52l27 14C228-24 195 4 139 4 59 4 22-46 18-125c-6-104 99-153 187-111 19 9 31 26 39 46" id="bi"/><path fill="#333" d="M100-194c62-1 85 37 85 99 1 63-27 99-86 99S16-35 15-95c0-66 28-99 85-99zM99-20c44 1 53-31 53-75 0-43-8-75-51-75s-53 32-53 75 10 74 51 75" id="bj"/><path fill="#333" d="M135-143c-3-34-86-38-87 0 15 53 115 12 119 90S17 21 10-45l28-5c4 36 97 45 98 0-10-56-113-15-118-90-4-57 82-63 122-42 12 7 21 19 24 35" id="bk"/><g id="h"><use transform="matrix(0.05,0,0,0.05,0,0)" xlink:href="#bi"/><use transform="matrix(0.05,0,0,0.05,12.950000000000001,0)" xlink:href="#bj"/><use transform="matrix(0.05,0,0,0.05,22.950000000000003,0)" xlink:href="#aS"/><use transform="matrix(0.05,0,0,0.05,32.95,0)" xlink:href="#aU"/><use transform="matrix(0.05,0,0,0.05,37.95,0)" xlink:href="#aR"/><use transform="matrix(0.05,0,0,0.05,47.95,0)" xlink:href="#aS"/><use transform="matrix(0.05,0,0,0.05,57.95,0)" xlink:href="#aU"/><use transform="matrix(0.05,0,0,0.05,62.95,0)" xlink:href="#bk"/><use transform="matrix(0.05,0,0,0.05,71.95,0)" xlink:href="#aW"/></g><path fill="#333" d="M96-169c-40 0-48 33-48 73s9 75 48 75c24 0 41-14 43-38l32 2c-6 37-31 61-74 61-59 0-76-41-82-99-10-93 101-131 147-64 4 7 5 14 7 22l-32 3c-4-21-16-35-41-35" id="bl"/><path fill="#333" d="M141-36C126-15 110 5 73 4 37 3 15-17 15-53c-1-64 63-63 125-63 3-35-9-54-41-54-24 1-41 7-42 31l-33-3c5-37 33-52 76-52 45 0 72 20 72 64v82c-1 20 7 32 28 27v20c-31 9-61-2-59-35zM48-53c0 20 12 33 32 33 41-3 63-29 60-74-43 2-92-5-92 41" id="bm"/><path fill="#333" d="M114-163C36-179 61-72 57 0H25l-1-190h30c1 12-1 29 2 39 6-27 23-49 58-41v29" id="bn"/><path fill="#333" d="M26 75v-336h71v23H56V52h41v23H26" id="bo"/><path fill="#333" d="M3 75V52h41v-290H3v-23h71V75H3" id="bp"/><g id="i"><use transform="matrix(0.05,0,0,0.05,0,0)" xlink:href="#bl"/><use transform="matrix(0.05,0,0,0.05,9,0)" xlink:href="#aV"/><use transform="matrix(0.05,0,0,0.05,19,0)" xlink:href="#bm"/><use transform="matrix(0.05,0,0,0.05,29,0)" xlink:href="#bn"/><use transform="matrix(0.05,0,0,0.05,34.95,0)" xlink:href="#bo"/><use transform="matrix(0.05,0,0,0.05,39.95,0)" xlink:href="#bp"/></g><g id="j"><use transform="matrix(0.04320987654320988,0,0,0.04320987654320988,0,0)" xlink:href="#aZ"/><use transform="matrix(0.04320987654320988,0,0,0.04320987654320988,5.1419753086419755,0)" xlink:href="#ba"/><use transform="matrix(0.04320987654320988,0,0,0.04320987654320988,13.783950617283953,0)" xlink:href="#bb"/><use transform="matrix(0.04320987654320988,0,0,0.04320987654320988,22.425925925925934,0)" xlink:href="#bc"/><use transform="matrix(0.04320987654320988,0,0,0.04320987654320988,31.067901234567906,0)" xlink:href="#bd"/><use transform="matrix(0.04320987654320988,0,0,0.04320987654320988,36.20987654320988,0)" xlink:href="#be"/><use transform="matrix(0.04320987654320988,0,0,0.04320987654320988,44.851851851851855,0)" xlink:href="#bf"/><use transform="matrix(0.04320987654320988,0,0,0.04320987654320988,53.49382716049383,0)" xlink:href="#bg"/><use transform="matrix(0.04320987654320988,0,0,0.04320987654320988,56.90740740740741,0)" xlink:href="#bh"/></g><path fill="#333" d="M230 0l2-204L168 0h-37L68-204 70 0H24v-248h70l56 185 57-185h69V0h-46" id="bq"/><path fill="#333" d="M114-157C55-157 80-60 75 0H25v-261h50l-1 109c12-26 28-41 61-42 86-1 58 113 63 194h-50c-7-57 23-157-34-157" id="br"/><path fill="#333" d="M88-194c31-1 46 15 58 34l-1-101h50l1 261h-48c-2-10 0-23-3-31C134-8 116 4 84 4 32 4 16-41 15-95c0-56 19-97 73-99zm17 164c33 0 40-30 41-66 1-37-9-64-41-64s-38 30-39 65c0 43 13 65 39 65" id="bs"/><g id="k"><use transform="matrix(0.05,0,0,0.05,0,0)" xlink:href="#bq"/><use transform="matrix(0.05,0,0,0.05,14.950000000000001,0)" xlink:href="#aM"/><use transform="matrix(0.05,0,0,0.05,24.950000000000003,0)" xlink:href="#aE"/><use transform="matrix(0.05,0,0,0.05,30.900000000000002,0)" xlink:href="#br"/><use transform="matrix(0.05,0,0,0.05,41.85,0)" xlink:href="#aK"/><use transform="matrix(0.05,0,0,0.05,52.800000000000004,0)" xlink:href="#bs"/><use transform="matrix(0.05,0,0,0.05,63.75,0)" xlink:href="#aN"/><use transform="matrix(0.05,0,0,0.05,73.75,0)" xlink:href="#aW"/></g><use transform="matrix(0.05,0,0,0.05,0,0)" xlink:href="#aP" id="l"/><path fill="#333" d="M185-189c-5-48-123-54-124 2 14 75 158 14 163 119 3 78-121 87-175 55-17-10-28-26-33-46l33-7c5 56 141 63 141-1 0-78-155-14-162-118-5-82 145-84 179-34 5 7 8 16 11 25" id="bt"/><path fill="#333" d="M87 75C49 33 22-17 22-94c0-76 28-126 65-167h31c-38 41-64 92-64 168S80 34 118 75H87" id="bu"/><path fill="#333" d="M33-261c38 41 65 92 65 168S71 34 33 75H2C39 34 66-17 66-93S39-220 2-261h31" id="bv"/><g id="m"><use transform="matrix(0.05,0,0,0.05,0,0)" xlink:href="#bt"/><use transform="matrix(0.05,0,0,0.05,12,0)" xlink:href="#aU"/><use transform="matrix(0.05,0,0,0.05,17,0)" xlink:href="#bn"/><use transform="matrix(0.05,0,0,0.05,22.95,0)" xlink:href="#aX"/><use transform="matrix(0.05,0,0,0.05,26.899999999999995,0)" xlink:href="#aS"/><use transform="matrix(0.05,0,0,0.05,36.9,0)" xlink:href="#aT"/><use transform="matrix(0.05,0,0,0.05,46.9,0)" xlink:href="#bu"/><use transform="matrix(0.05,0,0,0.05,52.85,0)" xlink:href="#bv"/><use transform="matrix(0.05,0,0,0.05,58.800000000000004,0)" xlink:href="#aW"/></g><g id="n"><use transform="matrix(0.05,0,0,0.05,0,0)" xlink:href="#bt"/><use transform="matrix(0.05,0,0,0.05,12,0)" xlink:href="#aU"/><use transform="matrix(0.05,0,0,0.05,17,0)" xlink:href="#bn"/><use transform="matrix(0.05,0,0,0.05,22.95,0)" xlink:href="#aX"/><use transform="matrix(0.05,0,0,0.05,26.899999999999995,0)" xlink:href="#aS"/><use transform="matrix(0.05,0,0,0.05,36.9,0)" xlink:href="#aT"/></g><path fill="#b2b2b2" d="M44-68c0 29 11 47 38 47 30 0 42-19 51-41l28 9C148-21 126 4 82 4 31 4 10-29 12-85c3-77 74-140 146-93 12 8 15 23 18 40l-31 5c-1-22-13-36-36-36-52 0-65 49-65 101" id="bw"/><path fill="#b2b2b2" d="M55-144c13 50 104 24 104 88C159 21 15 23 1-39l26-10c6 40 102 42 102-4-13-50-104-23-104-87 0-71 143-71 148-8l-29 4c-5-35-85-37-89 0" id="bx"/><path fill="#b2b2b2" d="M51-54c-9 22 5 41 31 30L79-1C43 14 10-4 19-52l22-115H19l5-23h22l19-43h21l-9 43h35l-4 23H73" id="by"/><path fill="#b2b2b2" d="M67 3c-93-2-31-127-26-193h32L48-50c-3 39 53 32 70 12 30-34 30-101 43-152h32L157 0h-30c1-10 6-24 4-33-14 20-29 37-64 36" id="bz"/><g id="o"><use transform="matrix(0.04320987654320988,0,0,0.04320987654320988,0,0)" xlink:href="#bw"/><use transform="matrix(0.04320987654320988,0,0,0.04320987654320988,7.777777777777779,0)" xlink:href="#be"/><use transform="matrix(0.04320987654320988,0,0,0.04320987654320988,16.419753086419753,0)" xlink:href="#bf"/><use transform="matrix(0.04320987654320988,0,0,0.04320987654320988,25.061728395061728,0)" xlink:href="#bx"/><use transform="matrix(0.04320987654320988,0,0,0.04320987654320988,32.839506172839506,0)" xlink:href="#by"/><use transform="matrix(0.04320987654320988,0,0,0.04320987654320988,37.160493827160494,0)" xlink:href="#aZ"/><use transform="matrix(0.04320987654320988,0,0,0.04320987654320988,42.30246913580247,0)" xlink:href="#bz"/><use transform="matrix(0.04320987654320988,0,0,0.04320987654320988,50.94444444444444,0)" xlink:href="#bw"/><use transform="matrix(0.04320987654320988,0,0,0.04320987654320988,58.72222222222222,0)" xlink:href="#by"/><use transform="matrix(0.04320987654320988,0,0,0.04320987654320988,63.04320987654321,0)" xlink:href="#be"/><use transform="matrix(0.04320987654320988,0,0,0.04320987654320988,71.68518518518519,0)" xlink:href="#aZ"/></g><g id="p"><use transform="matrix(0.05,0,0,0.05,0,0)" xlink:href="#bt"/><use transform="matrix(0.05,0,0,0.05,12,0)" xlink:href="#aU"/><use transform="matrix(0.05,0,0,0.05,17,0)" xlink:href="#bn"/><use transform="matrix(0.05,0,0,0.05,22.95,0)" xlink:href="#aX"/><use transform="matrix(0.05,0,0,0.05,26.899999999999995,0)" xlink:href="#aS"/><use transform="matrix(0.05,0,0,0.05,36.9,0)" xlink:href="#aT"/><use transform="matrix(0.05,0,0,0.05,46.9,0)" xlink:href="#bu"/><use transform="matrix(0.05,0,0,0.05,52.85,0)" xlink:href="#bk"/><use transform="matrix(0.05,0,0,0.05,61.85,0)" xlink:href="#aU"/><use transform="matrix(0.05,0,0,0.05,66.85,0)" xlink:href="#bn"/><use transform="matrix(0.05,0,0,0.05,72.8,0)" xlink:href="#aX"/><use transform="matrix(0.05,0,0,0.05,76.75,0)" xlink:href="#aS"/><use transform="matrix(0.05,0,0,0.05,86.75,0)" xlink:href="#aT"/></g><g id="q"><use transform="matrix(0.05,0,0,0.05,0,0)" xlink:href="#bk"/><use transform="matrix(0.05,0,0,0.05,9,0)" xlink:href="#bv"/><use transform="matrix(0.05,0,0,0.05,14.949999999999998,0)" xlink:href="#aW"/></g><g id="r"><use transform="matrix(0.05,0,0,0.05,0,0)" xlink:href="#bt"/><use transform="matrix(0.05,0,0,0.05,12,0)" xlink:href="#aU"/><use transform="matrix(0.05,0,0,0.05,17,0)" xlink:href="#bn"/><use transform="matrix(0.05,0,0,0.05,22.95,0)" xlink:href="#aX"/><use transform="matrix(0.05,0,0,0.05,26.899999999999995,0)" xlink:href="#aS"/><use transform="matrix(0.05,0,0,0.05,36.9,0)" xlink:href="#aT"/><use transform="matrix(0.05,0,0,0.05,46.9,0)" xlink:href="#bu"/><use transform="matrix(0.05,0,0,0.05,52.85,0)" xlink:href="#bl"/><use transform="matrix(0.05,0,0,0.05,61.85,0)" xlink:href="#aV"/><use transform="matrix(0.05,0,0,0.05,71.85,0)" xlink:href="#bm"/><use transform="matrix(0.05,0,0,0.05,81.85,0)" xlink:href="#bn"/></g><g id="s"><use transform="matrix(0.05,0,0,0.05,0,0)" xlink:href="#bl"/><use transform="matrix(0.05,0,0,0.05,9,0)" xlink:href="#bv"/><use transform="matrix(0.05,0,0,0.05,14.949999999999998,0)" xlink:href="#aW"/></g><g id="t"><use transform="matrix(0.04320987654320988,0,0,0.04320987654320988,0,0)" xlink:href="#bw"/><use transform="matrix(0.04320987654320988,0,0,0.04320987654320988,7.777777777777779,0)" xlink:href="#be"/><use transform="matrix(0.04320987654320988,0,0,0.04320987654320988,16.419753086419753,0)" xlink:href="#bf"/><use transform="matrix(0.04320987654320988,0,0,0.04320987654320988,25.061728395061728,0)" xlink:href="#bx"/><use transform="matrix(0.04320987654320988,0,0,0.04320987654320988,32.839506172839506,0)" xlink:href="#by"/><use transform="matrix(0.04320987654320988,0,0,0.04320987654320988,37.160493827160494,0)" xlink:href="#aZ"/><use transform="matrix(0.04320987654320988,0,0,0.04320987654320988,42.30246913580247,0)" xlink:href="#bz"/><use transform="matrix(0.04320987654320988,0,0,0.04320987654320988,50.94444444444444,0)" xlink:href="#bw"/><use transform="matrix(0.04320987654320988,0,0,0.04320987654320988,58.72222222222222,0)" xlink:href="#by"/><use transform="matrix(0.04320987654320988,0,0,0.04320987654320988,63.04320987654321,0)" xlink:href="#be"/><use transform="matrix(0.04320987654320988,0,0,0.04320987654320988,71.68518518518519,0)" xlink:href="#aZ"/></g><g id="u"><use transform="matrix(0.05,0,0,0.05,0,0)" xlink:href="#bt"/><use transform="matrix(0.05,0,0,0.05,12,0)" xlink:href="#aU"/><use transform="matrix(0.05,0,0,0.05,17,0)" xlink:href="#bn"/><use transform="matrix(0.05,0,0,0.05,22.95,0)" xlink:href="#aX"/><use transform="matrix(0.05,0,0,0.05,26.899999999999995,0)" xlink:href="#aS"/><use transform="matrix(0.05,0,0,0.05,36.9,0)" xlink:href="#aT"/><use transform="matrix(0.05,0,0,0.05,46.9,0)" xlink:href="#bu"/><use transform="matrix(0.05,0,0,0.05,52.85,0)" xlink:href="#bl"/><use transform="matrix(0.05,0,0,0.05,61.85,0)" xlink:href="#aV"/><use transform="matrix(0.05,0,0,0.05,71.85,0)" xlink:href="#bm"/><use transform="matrix(0.05,0,0,0.05,81.85,0)" xlink:href="#bn"/><use transform="matrix(0.05,0,0,0.05,87.8,0)" xlink:href="#bo"/><use transform="matrix(0.05,0,0,0.05,92.8,0)" xlink:href="#bp"/></g><g id="v"><use transform="matrix(0.05,0,0,0.05,0,0)" xlink:href="#bl"/><use transform="matrix(0.05,0,0,0.05,9,0)" xlink:href="#bj"/><use transform="matrix(0.05,0,0,0.05,19,0)" xlink:href="#aS"/><use transform="matrix(0.05,0,0,0.05,29,0)" xlink:href="#aU"/><use transform="matrix(0.05,0,0,0.05,34,0)" xlink:href="#aR"/><use transform="matrix(0.05,0,0,0.05,44,0)" xlink:href="#aS"/><use transform="matrix(0.05,0,0,0.05,54,0)" xlink:href="#aU"/><use transform="matrix(0.05,0,0,0.05,59,0)" xlink:href="#bk"/><use transform="matrix(0.05,0,0,0.05,68,0)" xlink:href="#bv"/><use transform="matrix(0.05,0,0,0.05,73.95,0)" xlink:href="#aW"/></g><g id="w"><use transform="matrix(0.04320987654320988,0,0,0.04320987654320988,0,0)" xlink:href="#bw"/><use transform="matrix(0.04320987654320988,0,0,0.04320987654320988,7.777777777777779,0)" xlink:href="#be"/><use transform="matrix(0.04320987654320988,0,0,0.04320987654320988,16.419753086419753,0)" xlink:href="#bf"/><use transform="matrix(0.04320987654320988,0,0,0.04320987654320988,25.061728395061728,0)" xlink:href="#bx"/><use transform="matrix(0.04320987654320988,0,0,0.04320987654320988,32.839506172839506,0)" xlink:href="#by"/><use transform="matrix(0.04320987654320988,0,0,0.04320987654320988,37.160493827160494,0)" xlink:href="#aZ"/><use transform="matrix(0.04320987654320988,0,0,0.04320987654320988,42.30246913580247,0)" xlink:href="#bz"/><use transform="matrix(0.04320987654320988,0,0,0.04320987654320988,50.94444444444444,0)" xlink:href="#bw"/><use transform="matrix(0.04320987654320988,0,0,0.04320987654320988,58.72222222222222,0)" xlink:href="#by"/><use transform="matrix(0.04320987654320988,0,0,0.04320987654320988,63.04320987654321,0)" xlink:href="#be"/><use transform="matrix(0.04320987654320988,0,0,0.04320987654320988,71.68518518518519,0)" xlink:href="#aZ"/></g><path fill="#333" d="M24 0v-261h32V0H24" id="bA"/><g id="x"><use transform="matrix(0.05,0,0,0.05,0,0)" xlink:href="#bi"/><use transform="matrix(0.05,0,0,0.05,12.950000000000001,0)" xlink:href="#bA"/><use transform="matrix(0.05,0,0,0.05,16.900000000000002,0)" xlink:href="#aR"/><use transform="matrix(0.05,0,0,0.05,26.900000000000002,0)" xlink:href="#bm"/><use transform="matrix(0.05,0,0,0.05,36.900000000000006,0)" xlink:href="#bn"/><use transform="matrix(0.05,0,0,0.05,42.85000000000001,0)" xlink:href="#bu"/><use transform="matrix(0.05,0,0,0.05,48.80000000000001,0)" xlink:href="#bv"/><use transform="matrix(0.05,0,0,0.05,54.750000000000014,0)" xlink:href="#aW"/></g><path fill="#333" d="M108 0H70L1-190h34L89-25l56-165h34" id="bB"/><path fill="#333" d="M85-194c31 0 48 13 60 33l-1-100h32l1 261h-30c-2-10 0-23-3-31C134-8 116 4 85 4 32 4 16-35 15-94c0-66 23-100 70-100zm9 24c-40 0-46 34-46 75 0 40 6 74 45 74 42 0 51-32 51-76 0-42-9-74-50-73" id="bC"/><g id="y"><use transform="matrix(0.05,0,0,0.05,0,0)" xlink:href="#bB"/><use transform="matrix(0.05,0,0,0.05,9,0)" xlink:href="#bj"/><use transform="matrix(0.05,0,0,0.05,19,0)" xlink:href="#aX"/><use transform="matrix(0.05,0,0,0.05,22.95,0)" xlink:href="#bC"/></g><path fill="#333" d="M137 0h-34L2-248h35l83 218 83-218h36" id="bD"/><path fill="#333" d="M84 4C-5 8 30-112 23-190h32v120c0 31 7 50 39 49 72-2 45-101 50-169h31l1 190h-30c-1-10 1-25-2-33-11 22-28 36-60 37" id="bE"/><path fill="#333" d="M205 0l-28-72H64L36 0H1l101-248h38L239 0h-34zm-38-99l-47-123c-12 45-31 82-46 123h93" id="bF"/><path fill="#333" d="M179-190L93 31C79 59 56 82 12 73V49c39 6 53-20 64-50L1-190h34L92-34l54-156h33" id="bG"/><g id="z"><use transform="matrix(0.05,0,0,0.05,0,0)" xlink:href="#bD"/><use transform="matrix(0.05,0,0,0.05,10.65,0)" xlink:href="#bm"/><use transform="matrix(0.05,0,0,0.05,20.65,0)" xlink:href="#bA"/><use transform="matrix(0.05,0,0,0.05,24.599999999999998,0)" xlink:href="#bE"/><use transform="matrix(0.05,0,0,0.05,34.599999999999994,0)" xlink:href="#aR"/><use transform="matrix(0.05,0,0,0.05,44.599999999999994,0)" xlink:href="#bF"/><use transform="matrix(0.05,0,0,0.05,56.599999999999994,0)" xlink:href="#bk"/><use transform="matrix(0.05,0,0,0.05,65.6,0)" xlink:href="#bi"/><use transform="matrix(0.05,0,0,0.05,78.55,0)" xlink:href="#aV"/><use transform="matrix(0.05,0,0,0.05,88.55,0)" xlink:href="#bm"/><use transform="matrix(0.05,0,0,0.05,98.55,0)" xlink:href="#bn"/><use transform="matrix(0.05,0,0,0.05,104.5,0)" xlink:href="#bF"/><use transform="matrix(0.05,0,0,0.05,116.5,0)" xlink:href="#bn"/><use transform="matrix(0.05,0,0,0.05,122.45,0)" xlink:href="#bn"/><use transform="matrix(0.05,0,0,0.05,128.4,0)" xlink:href="#bm"/><use transform="matrix(0.05,0,0,0.05,138.4,0)" xlink:href="#bG"/><use transform="matrix(0.05,0,0,0.05,147.4,0)" xlink:href="#bu"/><use transform="matrix(0.05,0,0,0.05,153.35,0)" xlink:href="#bv"/><use transform="matrix(0.05,0,0,0.05,159.29999999999998,0)" xlink:href="#aW"/></g><g id="A"><use transform="matrix(0.05,0,0,0.05,0,0)" xlink:href="#bl"/><use transform="matrix(0.05,0,0,0.05,9,0)" xlink:href="#aV"/><use transform="matrix(0.05,0,0,0.05,19,0)" xlink:href="#bm"/><use transform="matrix(0.05,0,0,0.05,29,0)" xlink:href="#bn"/><use transform="matrix(0.05,0,0,0.05,34.95,0)" xlink:href="#bo"/><use transform="matrix(0.05,0,0,0.05,39.95,0)" xlink:href="#bp"/></g><path fill="#333" d="M16-82v-28h88v28H16" id="bH"/><use transform="matrix(0.05,0,0,0.05,0,0)" xlink:href="#bH" id="B"/><path fill="#333" d="M16-127c37-31 93-2 135 6 18-1 32-8 43-16v26c-50 42-130-35-178 9v-25" id="bI"/><g id="C"><use transform="matrix(0.05,0,0,0.05,0,0)" xlink:href="#bI"/><use transform="matrix(0.05,0,0,0.05,10.5,0)" xlink:href="#bt"/><use transform="matrix(0.05,0,0,0.05,22.5,0)" xlink:href="#aU"/><use transform="matrix(0.05,0,0,0.05,27.5,0)" xlink:href="#bn"/><use transform="matrix(0.05,0,0,0.05,33.45,0)" xlink:href="#aX"/><use transform="matrix(0.05,0,0,0.05,37.400000000000006,0)" xlink:href="#aS"/><use transform="matrix(0.05,0,0,0.05,47.400000000000006,0)" xlink:href="#aT"/><use transform="matrix(0.05,0,0,0.05,57.400000000000006,0)" xlink:href="#bu"/><use transform="matrix(0.05,0,0,0.05,63.35,0)" xlink:href="#bv"/><use transform="matrix(0.05,0,0,0.05,69.30000000000001,0)" xlink:href="#aW"/></g><g id="D"><use transform="matrix(0.05,0,0,0.05,0,0)" xlink:href="#bB"/><use transform="matrix(0.05,0,0,0.05,9,0)" xlink:href="#bj"/><use transform="matrix(0.05,0,0,0.05,19,0)" xlink:href="#aX"/><use transform="matrix(0.05,0,0,0.05,22.95,0)" xlink:href="#bC"/></g><g id="E"><use transform="matrix(0.04320987654320988,0,0,0.04320987654320988,0,0)" xlink:href="#bc"/><use transform="matrix(0.04320987654320988,0,0,0.04320987654320988,8.641975308641976,0)" xlink:href="#ba"/><use transform="matrix(0.04320987654320988,0,0,0.04320987654320988,17.283950617283953,0)" xlink:href="#bx"/><use transform="matrix(0.04320987654320988,0,0,0.04320987654320988,25.06172839506173,0)" xlink:href="#by"/><use transform="matrix(0.04320987654320988,0,0,0.04320987654320988,29.38271604938272,0)" xlink:href="#aZ"/><use transform="matrix(0.04320987654320988,0,0,0.04320987654320988,34.5246913580247,0)" xlink:href="#bz"/><use transform="matrix(0.04320987654320988,0,0,0.04320987654320988,43.16666666666667,0)" xlink:href="#bw"/><use transform="matrix(0.04320987654320988,0,0,0.04320987654320988,50.94444444444445,0)" xlink:href="#by"/><use transform="matrix(0.04320987654320988,0,0,0.04320987654320988,55.26543209876544,0)" xlink:href="#be"/><use transform="matrix(0.04320987654320988,0,0,0.04320987654320988,63.90740740740741,0)" xlink:href="#aZ"/></g><path fill="#333" d="M133-34C117-15 103 5 69 4 32 3 11-16 11-54c-1-60 55-63 116-61 1-26-3-47-28-47-18 1-26 9-28 27l-52-2c7-38 36-58 82-57s74 22 75 68l1 82c-1 14 12 18 25 15v27c-30 8-71 5-69-32zm-48 3c29 0 43-24 42-57-32 0-66-3-65 30 0 17 8 27 23 27" id="bJ"/><path fill="#333" d="M190-63c-7 42-38 67-86 67-59 0-84-38-90-98-12-110 154-137 174-36l-49 2c-2-19-15-32-35-32-30 0-35 28-38 64-6 74 65 87 74 30" id="bK"/><path fill="#333" d="M147 0L96-86 75-71V0H25v-261h50v150l67-79h53l-66 74L201 0h-54" id="bL"/><path fill="#333" d="M15-91v-56l181-69v40L49-119l147 57v40" id="bM"/><path fill="#333" d="M136-208V0H84v-208H4v-40h212v40h-80" id="bN"/><path fill="#333" d="M15-22v-40l146-57-146-57v-40l181 69v56" id="bO"/><g id="F"><use transform="matrix(0.05,0,0,0.05,0,0)" xlink:href="#aD"/><use transform="matrix(0.05,0,0,0.05,12,0)" xlink:href="#aE"/><use transform="matrix(0.05,0,0,0.05,17.95,0)" xlink:href="#bJ"/><use transform="matrix(0.05,0,0,0.05,27.950000000000003,0)" xlink:href="#bK"/><use transform="matrix(0.05,0,0,0.05,37.95,0)" xlink:href="#bL"/><use transform="matrix(0.05,0,0,0.05,47.95,0)" xlink:href="#bM"/><use transform="matrix(0.05,0,0,0.05,58.45,0)" xlink:href="#bN"/><use transform="matrix(0.05,0,0,0.05,69.4,0)" xlink:href="#bO"/></g><path fill="#333" d="M76-208v77h127v40H76V0H24v-248h183v40H76" id="bP"/><path fill="#333" d="M25 0v-261h50V0H25" id="bQ"/><g id="G"><use transform="matrix(0.05,0,0,0.05,0,0)" xlink:href="#bP"/><use transform="matrix(0.05,0,0,0.05,10.950000000000001,0)" xlink:href="#aG"/><use transform="matrix(0.05,0,0,0.05,15.950000000000001,0)" xlink:href="#aM"/><use transform="matrix(0.05,0,0,0.05,25.950000000000003,0)" xlink:href="#bQ"/><use transform="matrix(0.05,0,0,0.05,30.950000000000003,0)" xlink:href="#bs"/><use transform="matrix(0.05,0,0,0.05,41.900000000000006,0)" xlink:href="#aN"/><use transform="matrix(0.05,0,0,0.05,51.900000000000006,0)" xlink:href="#aO"/></g><path d="M16-82v-28h88v28H16" id="bR"/><use transform="matrix(0.04938271604938272,0,0,0.04938271604938272,0,0)" xlink:href="#bR" id="H"/><path d="M100-194c63 0 86 42 84 106H49c0 40 14 67 53 68 26 1 43-12 49-29l28 8c-11 28-37 45-77 45C44 4 14-33 15-96c1-61 26-98 85-98zm52 81c6-60-76-77-97-28-3 7-6 17-6 28h103" id="bS"/><path d="M24 0v-261h32V0H24" id="bT"/><path d="M210-169c-67 3-38 105-44 169h-31v-121c0-29-5-50-35-48C34-165 62-65 56 0H25l-1-190h30c1 10-1 24 2 32 10-44 99-50 107 0 11-21 27-35 58-36 85-2 47 119 55 194h-31v-121c0-29-5-49-35-48" id="bU"/><path d="M117-194c89-4 53 116 60 194h-32v-121c0-31-8-49-39-48C34-167 62-67 57 0H25l-1-190h30c1 10-1 24 2 32 11-22 29-35 61-36" id="bV"/><path d="M59-47c-2 24 18 29 38 22v24C64 9 27 4 27-40v-127H5v-23h24l9-43h21v43h35v23H59v120" id="bW"/><path d="M135-143c-3-34-86-38-87 0 15 53 115 12 119 90S17 21 10-45l28-5c4 36 97 45 98 0-10-56-113-15-118-90-4-57 82-63 122-42 12 7 21 19 24 35" id="bX"/><path d="M33-154v-36h34v36H33zM33 0v-36h34V0H33" id="bY"/><g id="I"><use transform="matrix(0.04938271604938272,0,0,0.04938271604938272,0,0)" xlink:href="#bS"/><use transform="matrix(0.04938271604938272,0,0,0.04938271604938272,9.876543209876544,0)" xlink:href="#bT"/><use transform="matrix(0.04938271604938272,0,0,0.04938271604938272,13.777777777777779,0)" xlink:href="#bS"/><use transform="matrix(0.04938271604938272,0,0,0.04938271604938272,23.654320987654323,0)" xlink:href="#bU"/><use transform="matrix(0.04938271604938272,0,0,0.04938271604938272,38.41975308641976,0)" xlink:href="#bS"/><use transform="matrix(0.04938271604938272,0,0,0.04938271604938272,48.296296296296305,0)" xlink:href="#bV"/><use transform="matrix(0.04938271604938272,0,0,0.04938271604938272,58.17283950617284,0)" xlink:href="#bW"/><use transform="matrix(0.04938271604938272,0,0,0.04938271604938272,63.111111111111114,0)" xlink:href="#bX"/><use transform="matrix(0.04938271604938272,0,0,0.04938271604938272,72.00000000000001,0)" xlink:href="#bY"/></g><path d="M127-220V0H93v-220H8v-28h204v28h-85" id="bZ"/><path d="M26 75v-336h71v23H56V52h41v23H26" id="ca"/><path d="M3 75V52h41v-290H3v-23h71V75H3" id="cb"/><g id="J"><use transform="matrix(0.04938271604938272,0,0,0.04938271604938272,0,0)" xlink:href="#bZ"/><use transform="matrix(0.04938271604938272,0,0,0.04938271604938272,10.814814814814815,0)" xlink:href="#ca"/><use transform="matrix(0.04938271604938272,0,0,0.04938271604938272,15.753086419753087,0)" xlink:href="#cb"/></g><g id="K"><use transform="matrix(0.044444444444444446,0,0,0.044444444444444446,0,0)" xlink:href="#aY"/><use transform="matrix(0.044444444444444446,0,0,0.044444444444444446,4.444444444444445,0)" xlink:href="#aY"/></g><path fill="#b2b2b2" d="M188 0h-37l-8-164L71 0H34L18-190h31l8 164 75-164h34l8 164 74-164h31" id="cc"/><path fill="#b2b2b2" d="M67-158c15-20 31-36 64-36 94 0 33 127 27 194h-32l25-140c3-38-53-32-70-12C52-117 51-51 37 0H6l51-261h31" id="cd"/><g id="L"><use transform="matrix(0.044444444444444446,0,0,0.044444444444444446,0,0)" xlink:href="#cc"/><use transform="matrix(0.044444444444444446,0,0,0.044444444444444446,11.511111111111111,0)" xlink:href="#cd"/><use transform="matrix(0.044444444444444446,0,0,0.044444444444444446,20.4,0)" xlink:href="#ba"/><use transform="matrix(0.044444444444444446,0,0,0.044444444444444446,29.28888888888889,0)" xlink:href="#aZ"/><use transform="matrix(0.044444444444444446,0,0,0.044444444444444446,34.577777777777776,0)" xlink:href="#ba"/></g><path fill="#b2b2b2" d="M151-220L108 0H75l42-220H32l6-28h203l-5 28h-85" id="ce"/><use transform="matrix(0.044444444444444446,0,0,0.044444444444444446,0,0)" xlink:href="#ce" id="M"/><path fill="#b2b2b2" d="M50-231l6-30h32l-6 30H50zM6 0l37-190h31L37 0H6" id="cf"/><g id="N"><use transform="matrix(0.044444444444444446,0,0,0.044444444444444446,0,0)" xlink:href="#cf"/><use transform="matrix(0.044444444444444446,0,0,0.044444444444444446,3.511111111111111,0)" xlink:href="#bx"/></g><path fill="#b2b2b2" d="M14 0l48-248h34L48 0H14" id="cg"/><path fill="#b2b2b2" d="M194-120c59 52 2 134-86 124-53-6-90-18-98-63l31-7c8 30 29 43 70 43 46 0 84-17 71-62-32-43-135-20-137-98-3-89 178-90 191-16l-30 9c-8-48-127-53-127 5 0 53 81 35 115 65" id="ch"/><path fill="#b2b2b2" d="M103-194c29 0 47 14 56 36 2-11 5-23 8-32h30L160-5C157 61 82 97 21 62 9 55 4 45 1 30l28-7c7 42 83 31 92-3 4-16 9-38 13-55-13 20-29 36-62 36-40 0-60-25-60-64 0-71 23-131 91-131zm4 24c-53 0-58 54-61 104-2 27 10 44 36 44 49 0 65-50 67-102 1-29-15-46-42-46" id="ci"/><path fill="#b2b2b2" d="M238-179c0 84-86 86-175 82L45 0H11l48-248c82 0 179-12 179 69zm-34 1c0-53-64-42-116-43l-19 98c63 0 135 9 135-55" id="cj"/><g id="O"><use transform="matrix(0.04320987654320988,0,0,0.04320987654320988,0,0)" xlink:href="#cg"/><use transform="matrix(0.04320987654320988,0,0,0.04320987654320988,4.320987654320988,0)" xlink:href="#ch"/><use transform="matrix(0.04320987654320988,0,0,0.04320987654320988,14.691358024691363,0)" xlink:href="#by"/><use transform="matrix(0.04320987654320988,0,0,0.04320987654320988,19.01234567901235,0)" xlink:href="#aZ"/><use transform="matrix(0.04320987654320988,0,0,0.04320987654320988,24.154320987654323,0)" xlink:href="#cf"/><use transform="matrix(0.04320987654320988,0,0,0.04320987654320988,27.567901234567906,0)" xlink:href="#bf"/><use transform="matrix(0.04320987654320988,0,0,0.04320987654320988,36.20987654320988,0)" xlink:href="#ci"/><use transform="matrix(0.04320987654320988,0,0,0.04320987654320988,44.851851851851855,0)" xlink:href="#cj"/><use transform="matrix(0.04320987654320988,0,0,0.04320987654320988,55.22222222222223,0)" xlink:href="#aZ"/><use transform="matrix(0.04320987654320988,0,0,0.04320987654320988,60.3641975308642,0)" xlink:href="#ba"/><use transform="matrix(0.04320987654320988,0,0,0.04320987654320988,69.00617283950618,0)" xlink:href="#bx"/><use transform="matrix(0.04320987654320988,0,0,0.04320987654320988,76.78395061728395,0)" xlink:href="#ba"/><use transform="matrix(0.04320987654320988,0,0,0.04320987654320988,85.42592592592592,0)" xlink:href="#bf"/><use transform="matrix(0.04320987654320988,0,0,0.04320987654320988,94.0679012345679,0)" xlink:href="#by"/><use transform="matrix(0.04320987654320988,0,0,0.04320987654320988,98.38888888888889,0)" xlink:href="#ba"/><use transform="matrix(0.04320987654320988,0,0,0.04320987654320988,107.03086419753086,0)" xlink:href="#aZ"/></g><path d="M30-248c118-7 216 8 213 122C240-48 200 0 122 0H30v-248zM63-27c89 8 146-16 146-99s-60-101-146-95v194" id="ck"/><path d="M30 0v-248h187v28H63v79h144v27H63v87h162V0H30" id="cl"/><path d="M63-220v92h138v28H63V0H30v-248h175v28H63" id="cm"/><path d="M205 0l-28-72H64L36 0H1l101-248h38L239 0h-34zm-38-99l-47-123c-12 45-31 82-46 123h93" id="cn"/><path d="M232-93c-1 65-40 97-104 97C67 4 28-28 28-90v-158h33c8 89-33 224 67 224 102 0 64-133 71-224h33v155" id="co"/><path d="M30 0v-248h33v221h125V0H30" id="cp"/><path d="M-5 72V49h209v23H-5" id="cq"/><path d="M212-179c-10-28-35-45-73-45-59 0-87 40-87 99 0 60 29 101 89 101 43 0 62-24 78-52l27 14C228-24 195 4 139 4 59 4 22-46 18-125c-6-104 99-153 187-111 19 9 31 26 39 46" id="cr"/><path d="M30-248c87 1 191-15 191 75 0 78-77 80-158 76V0H30v-248zm33 125c57 0 124 11 124-50 0-59-68-47-124-48v98" id="cs"/><path d="M33 0v-248h34V0H33" id="ct"/><path d="M137-103V0h-34v-103L8-248h37l75 118 75-118h37" id="cu"/><g id="P"><use transform="matrix(0.04938271604938272,0,0,0.04938271604938272,0,0)" xlink:href="#ck"/><use transform="matrix(0.04938271604938272,0,0,0.04938271604938272,12.790123456790125,0)" xlink:href="#cl"/><use transform="matrix(0.04938271604938272,0,0,0.04938271604938272,24.641975308641978,0)" xlink:href="#cm"/><use transform="matrix(0.04938271604938272,0,0,0.04938271604938272,34.46913580246914,0)" xlink:href="#cn"/><use transform="matrix(0.04938271604938272,0,0,0.04938271604938272,46.320987654320994,0)" xlink:href="#co"/><use transform="matrix(0.04938271604938272,0,0,0.04938271604938272,59.111111111111114,0)" xlink:href="#cp"/><use transform="matrix(0.04938271604938272,0,0,0.04938271604938272,67.65432098765433,0)" xlink:href="#bZ"/><use transform="matrix(0.04938271604938272,0,0,0.04938271604938272,78.46913580246914,0)" xlink:href="#cq"/><use transform="matrix(0.04938271604938272,0,0,0.04938271604938272,88.34567901234568,0)" xlink:href="#cr"/><use transform="matrix(0.04938271604938272,0,0,0.04938271604938272,101.13580246913581,0)" xlink:href="#cn"/><use transform="matrix(0.04938271604938272,0,0,0.04938271604938272,112.98765432098766,0)" xlink:href="#cs"/><use transform="matrix(0.04938271604938272,0,0,0.04938271604938272,123.50617283950618,0)" xlink:href="#cn"/><use transform="matrix(0.04938271604938272,0,0,0.04938271604938272,135.35802469135803,0)" xlink:href="#cr"/><use transform="matrix(0.04938271604938272,0,0,0.04938271604938272,148.14814814814815,0)" xlink:href="#ct"/><use transform="matrix(0.04938271604938272,0,0,0.04938271604938272,153.08641975308643,0)" xlink:href="#bZ"/><use transform="matrix(0.04938271604938272,0,0,0.04938271604938272,163.90123456790124,0)" xlink:href="#cu"/><use transform="matrix(0.04938271604938272,0,0,0.04938271604938272,174.76543209876544,0)" xlink:href="#bY"/></g><path d="M24-231v-30h32v30H24zM24 0v-190h32V0H24" id="cv"/><g id="Q"><use transform="matrix(0.04938271604938272,0,0,0.04938271604938272,0,0)" xlink:href="#cv"/><use transform="matrix(0.04938271604938272,0,0,0.04938271604938272,3.901234567901235,0)" xlink:href="#bV"/><use transform="matrix(0.04938271604938272,0,0,0.04938271604938272,13.777777777777779,0)" xlink:href="#bW"/></g><g id="R"><use transform="matrix(0.044444444444444446,0,0,0.044444444444444446,0,0)" xlink:href="#bw"/><use transform="matrix(0.044444444444444446,0,0,0.044444444444444446,8,0)" xlink:href="#be"/><use transform="matrix(0.044444444444444446,0,0,0.044444444444444446,16.88888888888889,0)" xlink:href="#bf"/><use transform="matrix(0.044444444444444446,0,0,0.044444444444444446,25.77777777777778,0)" xlink:href="#bx"/><use transform="matrix(0.044444444444444446,0,0,0.044444444444444446,33.77777777777778,0)" xlink:href="#by"/><use transform="matrix(0.044444444444444446,0,0,0.044444444444444446,38.22222222222222,0)" xlink:href="#bb"/><use transform="matrix(0.044444444444444446,0,0,0.044444444444444446,47.111111111111114,0)" xlink:href="#bf"/><use transform="matrix(0.044444444444444446,0,0,0.044444444444444446,56,0)" xlink:href="#by"/></g><path d="M195 0l-74-108L45 0H8l94-129-87-119h37l69 98 67-98h37l-84 118L233 0h-38" id="cw"/><path d="M190 0L58-211 59 0H30v-248h39L202-35l-2-213h31V0h-41" id="cx"/><path d="M240 0l2-218c-23 76-54 145-80 218h-23L58-218 59 0H30v-248h44l77 211c21-75 51-140 76-211h43V0h-30" id="cy"/><path d="M233-177c-1 41-23 64-60 70L243 0h-38l-65-103H63V0H30v-248c88 3 205-21 203 71zM63-129c60-2 137 13 137-47 0-61-80-42-137-45v92" id="cz"/><g id="S"><use transform="matrix(0.04938271604938272,0,0,0.04938271604938272,0,0)" xlink:href="#cl"/><use transform="matrix(0.04938271604938272,0,0,0.04938271604938272,11.851851851851853,0)" xlink:href="#cw"/><use transform="matrix(0.04938271604938272,0,0,0.04938271604938272,23.703703703703706,0)" xlink:href="#cs"/><use transform="matrix(0.04938271604938272,0,0,0.04938271604938272,34.22222222222223,0)" xlink:href="#cn"/><use transform="matrix(0.04938271604938272,0,0,0.04938271604938272,46.07407407407408,0)" xlink:href="#cx"/><use transform="matrix(0.04938271604938272,0,0,0.04938271604938272,58.86419753086421,0)" xlink:href="#ck"/><use transform="matrix(0.04938271604938272,0,0,0.04938271604938272,71.65432098765433,0)" xlink:href="#cq"/><use transform="matrix(0.04938271604938272,0,0,0.04938271604938272,81.53086419753087,0)" xlink:href="#cy"/><use transform="matrix(0.04938271604938272,0,0,0.04938271604938272,96.2962962962963,0)" xlink:href="#co"/><use transform="matrix(0.04938271604938272,0,0,0.04938271604938272,109.08641975308643,0)" xlink:href="#cp"/><use transform="matrix(0.04938271604938272,0,0,0.04938271604938272,117.62962962962963,0)" xlink:href="#bZ"/><use transform="matrix(0.04938271604938272,0,0,0.04938271604938272,128.44444444444446,0)" xlink:href="#ct"/><use transform="matrix(0.04938271604938272,0,0,0.04938271604938272,133.38271604938274,0)" xlink:href="#cs"/><use transform="matrix(0.04938271604938272,0,0,0.04938271604938272,145.23456790123458,0)" xlink:href="#cp"/><use transform="matrix(0.04938271604938272,0,0,0.04938271604938272,155.11111111111114,0)" xlink:href="#ct"/><use transform="matrix(0.04938271604938272,0,0,0.04938271604938272,160.04938271604942,0)" xlink:href="#cl"/><use transform="matrix(0.04938271604938272,0,0,0.04938271604938272,171.90123456790127,0)" xlink:href="#cz"/><use transform="matrix(0.04938271604938272,0,0,0.04938271604938272,184.6913580246914,0)" xlink:href="#bY"/></g><g id="T"><use transform="matrix(0.044444444444444446,0,0,0.044444444444444446,0,0)" xlink:href="#bw"/><use transform="matrix(0.044444444444444446,0,0,0.044444444444444446,8,0)" xlink:href="#be"/><use transform="matrix(0.044444444444444446,0,0,0.044444444444444446,16.88888888888889,0)" xlink:href="#bf"/><use transform="matrix(0.044444444444444446,0,0,0.044444444444444446,25.77777777777778,0)" xlink:href="#bx"/><use transform="matrix(0.044444444444444446,0,0,0.044444444444444446,33.77777777777778,0)" xlink:href="#by"/><use transform="matrix(0.044444444444444446,0,0,0.044444444444444446,38.22222222222222,0)" xlink:href="#bb"/><use transform="matrix(0.044444444444444446,0,0,0.044444444444444446,47.111111111111114,0)" xlink:href="#bf"/><use transform="matrix(0.044444444444444446,0,0,0.044444444444444446,56,0)" xlink:href="#by"/></g><g id="U"><use transform="matrix(0.04938271604938272,0,0,0.04938271604938272,0,0)" xlink:href="#cl"/><use transform="matrix(0.04938271604938272,0,0,0.04938271604938272,11.851851851851853,0)" xlink:href="#cw"/><use transform="matrix(0.04938271604938272,0,0,0.04938271604938272,23.703703703703706,0)" xlink:href="#cs"/><use transform="matrix(0.04938271604938272,0,0,0.04938271604938272,34.22222222222223,0)" xlink:href="#cn"/><use transform="matrix(0.04938271604938272,0,0,0.04938271604938272,46.07407407407408,0)" xlink:href="#cx"/><use transform="matrix(0.04938271604938272,0,0,0.04938271604938272,58.86419753086421,0)" xlink:href="#ck"/><use transform="matrix(0.04938271604938272,0,0,0.04938271604938272,71.65432098765433,0)" xlink:href="#cq"/><use transform="matrix(0.04938271604938272,0,0,0.04938271604938272,81.53086419753087,0)" xlink:href="#cs"/><use transform="matrix(0.04938271604938272,0,0,0.04938271604938272,92.0493827160494,0)" xlink:href="#cn"/><use transform="matrix(0.04938271604938272,0,0,0.04938271604938272,103.90123456790124,0)" xlink:href="#cz"/><use transform="matrix(0.04938271604938272,0,0,0.04938271604938272,116.34567901234568,0)" xlink:href="#bZ"/><use transform="matrix(0.04938271604938272,0,0,0.04938271604938272,125.18518518518519,0)" xlink:href="#bY"/></g><path d="M101-234c-31-9-42 10-38 44h38v23H63V0H32v-167H5v-23h27c-7-52 17-82 69-68v24" id="cA"/><path d="M100-194c62-1 85 37 85 99 1 63-27 99-86 99S16-35 15-95c0-66 28-99 85-99zM99-20c44 1 53-31 53-75 0-43-8-75-51-75s-53 32-53 75 10 74 51 75" id="cB"/><path d="M141-36C126-15 110 5 73 4 37 3 15-17 15-53c-1-64 63-63 125-63 3-35-9-54-41-54-24 1-41 7-42 31l-33-3c5-37 33-52 76-52 45 0 72 20 72 64v82c-1 20 7 32 28 27v20c-31 9-61-2-59-35zM48-53c0 20 12 33 32 33 41-3 63-29 60-74-43 2-92-5-92 41" id="cC"/><g id="V"><use transform="matrix(0.04938271604938272,0,0,0.04938271604938272,0,0)" xlink:href="#cA"/><use transform="matrix(0.04938271604938272,0,0,0.04938271604938272,4.938271604938272,0)" xlink:href="#bT"/><use transform="matrix(0.04938271604938272,0,0,0.04938271604938272,8.839506172839506,0)" xlink:href="#cB"/><use transform="matrix(0.04938271604938272,0,0,0.04938271604938272,18.71604938271605,0)" xlink:href="#cC"/><use transform="matrix(0.04938271604938272,0,0,0.04938271604938272,28.592592592592595,0)" xlink:href="#bW"/></g><path d="M118-107v75H92v-75H18v-26h74v-75h26v75h74v26h-74" id="cD"/><use transform="matrix(0.04938271604938272,0,0,0.04938271604938272,0,0)" xlink:href="#cD" id="W"/><path d="M185-189c-5-48-123-54-124 2 14 75 158 14 163 119 3 78-121 87-175 55-17-10-28-26-33-46l33-7c5 56 141 63 141-1 0-78-155-14-162-118-5-82 145-84 179-34 5 7 8 16 11 25" id="cE"/><path d="M9 0v-24l116-142H16v-24h144v24L44-24h123V0H9" id="cF"/><g id="X"><use transform="matrix(0.04938271604938272,0,0,0.04938271604938272,0,0)" xlink:href="#cE"/><use transform="matrix(0.04938271604938272,0,0,0.04938271604938272,11.851851851851853,0)" xlink:href="#cv"/><use transform="matrix(0.04938271604938272,0,0,0.04938271604938272,15.753086419753087,0)" xlink:href="#cF"/><use transform="matrix(0.04938271604938272,0,0,0.04938271604938272,24.641975308641978,0)" xlink:href="#bS"/><use transform="matrix(0.04938271604938272,0,0,0.04938271604938272,34.51851851851852,0)" xlink:href="#bY"/></g><g id="Y"><use transform="matrix(0.044444444444444446,0,0,0.044444444444444446,0,0)" xlink:href="#aZ"/><use transform="matrix(0.044444444444444446,0,0,0.044444444444444446,5.288888888888889,0)" xlink:href="#ba"/><use transform="matrix(0.044444444444444446,0,0,0.044444444444444446,14.177777777777779,0)" xlink:href="#bb"/><use transform="matrix(0.044444444444444446,0,0,0.044444444444444446,23.066666666666666,0)" xlink:href="#bc"/><use transform="matrix(0.044444444444444446,0,0,0.044444444444444446,31.955555555555556,0)" xlink:href="#bd"/><use transform="matrix(0.044444444444444446,0,0,0.044444444444444446,37.24444444444445,0)" xlink:href="#be"/><use transform="matrix(0.044444444444444446,0,0,0.044444444444444446,46.13333333333333,0)" xlink:href="#bf"/><use transform="matrix(0.044444444444444446,0,0,0.044444444444444446,55.022222222222226,0)" xlink:href="#bg"/><use transform="matrix(0.044444444444444446,0,0,0.044444444444444446,58.53333333333334,0)" xlink:href="#bh"/></g><path fill="#333" d="M143 0L79-87 56-68V0H24v-261h32v163l83-92h37l-77 82L181 0h-38" id="cG"/><g id="Z"><use transform="matrix(0.05,0,0,0.05,0,0)" xlink:href="#bt"/><use transform="matrix(0.05,0,0,0.05,12,0)" xlink:href="#aU"/><use transform="matrix(0.05,0,0,0.05,17,0)" xlink:href="#bm"/><use transform="matrix(0.05,0,0,0.05,27,0)" xlink:href="#bl"/><use transform="matrix(0.05,0,0,0.05,36,0)" xlink:href="#cG"/><use transform="matrix(0.05,0,0,0.05,45,0)" xlink:href="#bu"/><use transform="matrix(0.05,0,0,0.05,50.95,0)" xlink:href="#bv"/><use transform="matrix(0.05,0,0,0.05,56.900000000000006,0)" xlink:href="#aW"/></g><g id="aa"><use transform="matrix(0.05,0,0,0.05,0,0)" xlink:href="#bt"/><use transform="matrix(0.05,0,0,0.05,12,0)" xlink:href="#aU"/><use transform="matrix(0.05,0,0,0.05,17,0)" xlink:href="#bm"/><use transform="matrix(0.05,0,0,0.05,27,0)" xlink:href="#bl"/><use transform="matrix(0.05,0,0,0.05,36,0)" xlink:href="#cG"/></g><g id="ab"><use transform="matrix(0.05,0,0,0.05,0,0)" xlink:href="#bt"/><use transform="matrix(0.05,0,0,0.05,12,0)" xlink:href="#aU"/><use transform="matrix(0.05,0,0,0.05,17,0)" xlink:href="#bm"/><use transform="matrix(0.05,0,0,0.05,27,0)" xlink:href="#bl"/><use transform="matrix(0.05,0,0,0.05,36,0)" xlink:href="#cG"/><use transform="matrix(0.05,0,0,0.05,45,0)" xlink:href="#bu"/><use transform="matrix(0.05,0,0,0.05,50.95,0)" xlink:href="#aX"/><use transform="matrix(0.05,0,0,0.05,54.900000000000006,0)" xlink:href="#aS"/><use transform="matrix(0.05,0,0,0.05,64.9,0)" xlink:href="#aU"/></g><path fill="#333" d="M115-194c55 1 70 41 70 98S169 2 115 4C84 4 66-9 55-30l1 105H24l-1-265h31l2 30c10-21 28-34 59-34zm-8 174c40 0 45-34 45-75s-6-73-45-74c-42 0-51 32-51 76 0 43 10 73 51 73" id="cH"/><g id="ac"><use transform="matrix(0.05,0,0,0.05,0,0)" xlink:href="#aX"/><use transform="matrix(0.05,0,0,0.05,3.95,0)" xlink:href="#aS"/><use transform="matrix(0.05,0,0,0.05,13.949999999999998,0)" xlink:href="#aX"/><use transform="matrix(0.05,0,0,0.05,17.9,0)" xlink:href="#aU"/><use transform="matrix(0.05,0,0,0.05,22.9,0)" xlink:href="#aX"/><use transform="matrix(0.05,0,0,0.05,26.849999999999994,0)" xlink:href="#bm"/><use transform="matrix(0.05,0,0,0.05,36.849999999999994,0)" xlink:href="#bA"/><use transform="matrix(0.05,0,0,0.05,40.8,0)" xlink:href="#bi"/><use transform="matrix(0.05,0,0,0.05,53.75,0)" xlink:href="#bm"/><use transform="matrix(0.05,0,0,0.05,63.75,0)" xlink:href="#cH"/><use transform="matrix(0.05,0,0,0.05,73.75,0)" xlink:href="#bm"/><use transform="matrix(0.05,0,0,0.05,83.75,0)" xlink:href="#bl"/><use transform="matrix(0.05,0,0,0.05,92.75,0)" xlink:href="#aX"/><use transform="matrix(0.05,0,0,0.05,96.7,0)" xlink:href="#aU"/><use transform="matrix(0.05,0,0,0.05,101.7,0)" xlink:href="#bG"/><use transform="matrix(0.05,0,0,0.05,110.7,0)" xlink:href="#bv"/><use transform="matrix(0.05,0,0,0.05,116.65,0)" xlink:href="#aW"/></g><path fill="#333" d="M30-248c87 1 191-15 191 75 0 78-77 80-158 76V0H30v-248zm33 125c57 0 124 11 124-50 0-59-68-47-124-48v98" id="cI"/><g id="ad"><use transform="matrix(0.05,0,0,0.05,0,0)" xlink:href="#cI"/><use transform="matrix(0.05,0,0,0.05,12,0)" xlink:href="#bj"/><use transform="matrix(0.05,0,0,0.05,22,0)" xlink:href="#cH"/><use transform="matrix(0.05,0,0,0.05,32,0)" xlink:href="#bu"/><use transform="matrix(0.05,0,0,0.05,37.95,0)" xlink:href="#bv"/><use transform="matrix(0.05,0,0,0.05,43.900000000000006,0)" xlink:href="#aW"/></g><g id="ae"><use transform="matrix(0.05,0,0,0.05,0,0)" xlink:href="#bB"/><use transform="matrix(0.05,0,0,0.05,9,0)" xlink:href="#bj"/><use transform="matrix(0.05,0,0,0.05,19,0)" xlink:href="#aX"/><use transform="matrix(0.05,0,0,0.05,22.95,0)" xlink:href="#bC"/></g><g id="af"><use transform="matrix(0.05,0,0,0.05,0,0)" xlink:href="#cI"/><use transform="matrix(0.05,0,0,0.05,12,0)" xlink:href="#bE"/><use transform="matrix(0.05,0,0,0.05,22,0)" xlink:href="#bk"/><use transform="matrix(0.05,0,0,0.05,31,0)" xlink:href="#aV"/><use transform="matrix(0.05,0,0,0.05,41,0)" xlink:href="#bu"/><use transform="matrix(0.05,0,0,0.05,46.95,0)" xlink:href="#bv"/><use transform="matrix(0.05,0,0,0.05,52.900000000000006,0)" xlink:href="#aW"/></g><g id="ag"><use transform="matrix(0.05,0,0,0.05,0,0)" xlink:href="#cI"/><use transform="matrix(0.05,0,0,0.05,12,0)" xlink:href="#aR"/><use transform="matrix(0.05,0,0,0.05,22,0)" xlink:href="#aR"/><use transform="matrix(0.05,0,0,0.05,32,0)" xlink:href="#cG"/><use transform="matrix(0.05,0,0,0.05,41,0)" xlink:href="#bu"/><use transform="matrix(0.05,0,0,0.05,46.95,0)" xlink:href="#bv"/><use transform="matrix(0.05,0,0,0.05,52.900000000000006,0)" xlink:href="#aW"/></g><path fill="#333" d="M33 0v-248h34V0H33" id="cJ"/><path fill="#333" d="M30 0v-248h187v28H63v79h144v27H63v87h162V0H30" id="cK"/><path fill="#333" d="M210-169c-67 3-38 105-44 169h-31v-121c0-29-5-50-35-48C34-165 62-65 56 0H25l-1-190h30c1 10-1 24 2 32 10-44 99-50 107 0 11-21 27-35 58-36 85-2 47 119 55 194h-31v-121c0-29-5-49-35-48" id="cL"/><g id="ah"><use transform="matrix(0.05,0,0,0.05,0,0)" xlink:href="#cJ"/><use transform="matrix(0.05,0,0,0.05,5,0)" xlink:href="#bk"/><use transform="matrix(0.05,0,0,0.05,14,0)" xlink:href="#cK"/><use transform="matrix(0.05,0,0,0.05,26,0)" xlink:href="#cL"/><use transform="matrix(0.05,0,0,0.05,40.95,0)" xlink:href="#cH"/><use transform="matrix(0.05,0,0,0.05,50.95,0)" xlink:href="#aU"/><use transform="matrix(0.05,0,0,0.05,55.95,0)" xlink:href="#bG"/><use transform="matrix(0.05,0,0,0.05,64.95,0)" xlink:href="#bu"/><use transform="matrix(0.05,0,0,0.05,70.9,0)" xlink:href="#bv"/><use transform="matrix(0.05,0,0,0.05,76.85000000000001,0)" xlink:href="#aW"/></g><g id="ai"><use transform="matrix(0.05,0,0,0.05,0,0)" xlink:href="#aX"/><use transform="matrix(0.05,0,0,0.05,3.95,0)" xlink:href="#aS"/><use transform="matrix(0.05,0,0,0.05,13.949999999999998,0)" xlink:href="#aU"/></g><path fill="#333" d="M206 0h-36l-40-164L89 0H53L-1-190h32L70-26l43-164h34l41 164 42-164h31" id="cM"/><g id="aj"><use transform="matrix(0.05,0,0,0.05,0,0)" xlink:href="#bD"/><use transform="matrix(0.05,0,0,0.05,11.65,0)" xlink:href="#aX"/><use transform="matrix(0.05,0,0,0.05,15.600000000000001,0)" xlink:href="#aR"/><use transform="matrix(0.05,0,0,0.05,25.6,0)" xlink:href="#cM"/><use transform="matrix(0.05,0,0,0.05,38.550000000000004,0)" xlink:href="#bi"/><use transform="matrix(0.05,0,0,0.05,51.5,0)" xlink:href="#bj"/><use transform="matrix(0.05,0,0,0.05,61.5,0)" xlink:href="#aS"/><use transform="matrix(0.05,0,0,0.05,71.5,0)" xlink:href="#aU"/><use transform="matrix(0.05,0,0,0.05,76.5,0)" xlink:href="#aR"/><use transform="matrix(0.05,0,0,0.05,86.5,0)" xlink:href="#aS"/><use transform="matrix(0.05,0,0,0.05,96.5,0)" xlink:href="#aU"/><use transform="matrix(0.05,0,0,0.05,101.5,0)" xlink:href="#bk"/><use transform="matrix(0.05,0,0,0.05,110.5,0)" xlink:href="#bu"/><use transform="matrix(0.05,0,0,0.05,116.45,0)" xlink:href="#bv"/><use transform="matrix(0.05,0,0,0.05,122.4,0)" xlink:href="#aW"/></g><path d="M15-91v-56l181-69v40L49-119l147 57v40" id="cN"/><path d="M25-224v-37h50v37H25zM25 0v-190h50V0H25" id="cO"/><path d="M135-194c87-1 58 113 63 194h-50c-7-57 23-157-34-157-59 0-34 97-39 157H25l-1-190h47c2 12-1 28 3 38 12-26 28-41 61-42" id="cP"/><path d="M115-3C79 11 28 4 28-45v-112H4v-33h27l15-45h31v45h36v33H77v99c-1 23 16 31 38 25v30" id="cQ"/><path d="M185-48c-13 30-37 53-82 52C43 2 14-33 14-96s30-98 90-98c62 0 83 45 84 108H66c0 31 8 55 39 56 18 0 30-7 34-22zm-45-69c5-46-57-63-70-21-2 6-4 13-4 21h74" id="cR"/><path d="M135-150c-39-12-60 13-60 57V0H25l-1-190h47c2 13-1 29 3 40 6-28 27-53 61-41v41" id="cS"/><path d="M121-226c-27-7-43 5-38 36h38v33H83V0H34v-157H6v-33h28c-9-59 32-81 87-68v32" id="cT"/><path d="M133-34C117-15 103 5 69 4 32 3 11-16 11-54c-1-60 55-63 116-61 1-26-3-47-28-47-18 1-26 9-28 27l-52-2c7-38 36-58 82-57s74 22 75 68l1 82c-1 14 12 18 25 15v27c-30 8-71 5-69-32zm-48 3c29 0 43-24 42-57-32 0-66-3-65 30 0 17 8 27 23 27" id="cU"/><path d="M190-63c-7 42-38 67-86 67-59 0-84-38-90-98-12-110 154-137 174-36l-49 2c-2-19-15-32-35-32-30 0-35 28-38 64-6 74 65 87 74 30" id="cV"/><path d="M15-22v-40l146-57-146-57v-40l181 69v56" id="cW"/><g id="al"><use transform="matrix(0.05,0,0,0.05,0,0)" xlink:href="#cN"/><use transform="matrix(0.05,0,0,0.05,10.5,0)" xlink:href="#cN"/><use transform="matrix(0.05,0,0,0.05,21,0)" xlink:href="#cO"/><use transform="matrix(0.05,0,0,0.05,26,0)" xlink:href="#cP"/><use transform="matrix(0.05,0,0,0.05,36.95,0)" xlink:href="#cQ"/><use transform="matrix(0.05,0,0,0.05,42.900000000000006,0)" xlink:href="#cR"/><use transform="matrix(0.05,0,0,0.05,52.900000000000006,0)" xlink:href="#cS"/><use transform="matrix(0.05,0,0,0.05,59.900000000000006,0)" xlink:href="#cT"/><use transform="matrix(0.05,0,0,0.05,65.85000000000001,0)" xlink:href="#cU"/><use transform="matrix(0.05,0,0,0.05,75.85000000000001,0)" xlink:href="#cV"/><use transform="matrix(0.05,0,0,0.05,85.85000000000001,0)" xlink:href="#cR"/><use transform="matrix(0.05,0,0,0.05,95.85000000000001,0)" xlink:href="#cW"/><use transform="matrix(0.05,0,0,0.05,106.35000000000001,0)" xlink:href="#cW"/></g><path d="M24 0v-248h52V0H24" id="cX"/><path d="M169-182c-1-43-94-46-97-3 18 66 151 10 154 114 3 95-165 93-204 36-6-8-10-19-12-30l50-8c3 46 112 56 116 5-17-69-150-10-154-114-4-87 153-88 188-35 5 8 8 18 10 28" id="cY"/><path d="M195-6C206 82 75 100 31 46c-4-6-6-13-8-21l49-6c3 16 16 24 34 25 40 0 42-37 40-79-11 22-30 35-61 35-53 0-70-43-70-97 0-56 18-96 73-97 30 0 46 14 59 34l2-30h47zm-90-29c32 0 41-27 41-63 0-35-9-62-40-62-32 0-39 29-40 63 0 36 9 62 39 62" id="cZ"/><path d="M24-248c93 1 206-16 204 79-1 75-69 88-152 82V0H24v-248zm52 121c47 0 100 7 100-41 0-47-54-39-100-39v80" id="da"/><path d="M137-138c1-29-70-34-71-4 15 46 118 7 119 86 1 83-164 76-172 9l43-7c4 19 20 25 44 25 33 8 57-30 24-41C81-84 22-81 20-136c-2-80 154-74 161-7" id="db"/><g id="am"><use transform="matrix(0.05,0,0,0.05,0,0)" xlink:href="#cX"/><use transform="matrix(0.05,0,0,0.05,5,0)" xlink:href="#cY"/><use transform="matrix(0.05,0,0,0.05,17,0)" xlink:href="#cQ"/><use transform="matrix(0.05,0,0,0.05,22.95,0)" xlink:href="#cS"/><use transform="matrix(0.05,0,0,0.05,29.950000000000003,0)" xlink:href="#cO"/><use transform="matrix(0.05,0,0,0.05,34.95,0)" xlink:href="#cP"/><use transform="matrix(0.05,0,0,0.05,45.900000000000006,0)" xlink:href="#cZ"/><use transform="matrix(0.05,0,0,0.05,56.85,0)" xlink:href="#da"/><use transform="matrix(0.05,0,0,0.05,68.85000000000001,0)" xlink:href="#cS"/><use transform="matrix(0.05,0,0,0.05,75.85000000000001,0)" xlink:href="#cR"/><use transform="matrix(0.05,0,0,0.05,85.85000000000001,0)" xlink:href="#db"/><use transform="matrix(0.05,0,0,0.05,95.85000000000001,0)" xlink:href="#cR"/><use transform="matrix(0.05,0,0,0.05,105.85000000000001,0)" xlink:href="#cP"/><use transform="matrix(0.05,0,0,0.05,116.80000000000001,0)" xlink:href="#cQ"/><use transform="matrix(0.05,0,0,0.05,122.75,0)" xlink:href="#cR"/><use transform="matrix(0.05,0,0,0.05,132.75,0)" xlink:href="#cS"/></g><g id="an"><use transform="matrix(0.05,0,0,0.05,0,0)" xlink:href="#aP"/><use transform="matrix(0.05,0,0,0.05,10.5,0)" xlink:href="#bD"/><use transform="matrix(0.05,0,0,0.05,21.15,0)" xlink:href="#bm"/><use transform="matrix(0.05,0,0,0.05,31.149999999999995,0)" xlink:href="#bA"/><use transform="matrix(0.05,0,0,0.05,35.1,0)" xlink:href="#bE"/><use transform="matrix(0.05,0,0,0.05,45.1,0)" xlink:href="#aR"/><use transform="matrix(0.05,0,0,0.05,55.1,0)" xlink:href="#bF"/><use transform="matrix(0.05,0,0,0.05,67.1,0)" xlink:href="#bk"/><use transform="matrix(0.05,0,0,0.05,76.1,0)" xlink:href="#bi"/><use transform="matrix(0.05,0,0,0.05,89.05,0)" xlink:href="#aV"/><use transform="matrix(0.05,0,0,0.05,99.05,0)" xlink:href="#bm"/><use transform="matrix(0.05,0,0,0.05,109.05000000000001,0)" xlink:href="#bn"/><use transform="matrix(0.05,0,0,0.05,115,0)" xlink:href="#bF"/><use transform="matrix(0.05,0,0,0.05,127,0)" xlink:href="#bn"/><use transform="matrix(0.05,0,0,0.05,132.95,0)" xlink:href="#bn"/><use transform="matrix(0.05,0,0,0.05,138.89999999999998,0)" xlink:href="#bm"/><use transform="matrix(0.05,0,0,0.05,148.89999999999998,0)" xlink:href="#bG"/><use transform="matrix(0.05,0,0,0.05,157.89999999999998,0)" xlink:href="#bu"/><use transform="matrix(0.05,0,0,0.05,163.84999999999997,0)" xlink:href="#bv"/><use transform="matrix(0.05,0,0,0.05,169.79999999999995,0)" xlink:href="#aW"/></g><g id="ao"><use transform="matrix(0.05,0,0,0.05,0,0)" xlink:href="#bl"/><use transform="matrix(0.05,0,0,0.05,9,0)" xlink:href="#aV"/><use transform="matrix(0.05,0,0,0.05,19,0)" xlink:href="#bm"/><use transform="matrix(0.05,0,0,0.05,29,0)" xlink:href="#bn"/><use transform="matrix(0.05,0,0,0.05,34.95,0)" xlink:href="#bo"/><use transform="matrix(0.05,0,0,0.05,39.95,0)" xlink:href="#bp"/></g><path fill="#333" d="M238-95c0 69-44 99-111 99C63 4 22-25 22-93v-155h51v151c-1 38 19 59 55 60 90 1 49-130 58-211h52v153" id="dc"/><g id="ap"><use transform="matrix(0.05,0,0,0.05,0,0)" xlink:href="#aD"/><use transform="matrix(0.05,0,0,0.05,12,0)" xlink:href="#aE"/><use transform="matrix(0.05,0,0,0.05,17.95,0)" xlink:href="#aF"/><use transform="matrix(0.05,0,0,0.05,24.95,0)" xlink:href="#aG"/><use transform="matrix(0.05,0,0,0.05,29.950000000000003,0)" xlink:href="#aH"/><use transform="matrix(0.05,0,0,0.05,40.9,0)" xlink:href="#aI"/><use transform="matrix(0.05,0,0,0.05,51.85,0)" xlink:href="#dc"/><use transform="matrix(0.05,0,0,0.05,64.8,0)" xlink:href="#aE"/><use transform="matrix(0.05,0,0,0.05,70.75,0)" xlink:href="#aG"/><use transform="matrix(0.05,0,0,0.05,75.75,0)" xlink:href="#bQ"/></g><g id="aq"><use transform="matrix(0.05,0,0,0.05,0,0)" xlink:href="#bP"/><use transform="matrix(0.05,0,0,0.05,10.950000000000001,0)" xlink:href="#aG"/><use transform="matrix(0.05,0,0,0.05,15.950000000000001,0)" xlink:href="#aM"/><use transform="matrix(0.05,0,0,0.05,25.950000000000003,0)" xlink:href="#bQ"/><use transform="matrix(0.05,0,0,0.05,30.950000000000003,0)" xlink:href="#bs"/><use transform="matrix(0.05,0,0,0.05,41.900000000000006,0)" xlink:href="#aN"/><use transform="matrix(0.05,0,0,0.05,51.900000000000006,0)" xlink:href="#aO"/></g><use transform="matrix(0.05,0,0,0.05,0,0)" xlink:href="#bH" id="ar"/><g id="as"><use transform="matrix(0.05,0,0,0.05,0,0)" xlink:href="#aU"/><use transform="matrix(0.05,0,0,0.05,5,0)" xlink:href="#bm"/><use transform="matrix(0.05,0,0,0.05,15,0)" xlink:href="#bn"/><use transform="matrix(0.05,0,0,0.05,20.95,0)" xlink:href="#aT"/><use transform="matrix(0.05,0,0,0.05,30.950000000000003,0)" xlink:href="#aR"/><use transform="matrix(0.05,0,0,0.05,40.95,0)" xlink:href="#aU"/><use transform="matrix(0.05,0,0,0.05,45.95,0)" xlink:href="#aW"/></g><g id="at"><use transform="matrix(0.05,0,0,0.05,0,0)" xlink:href="#bt"/><use transform="matrix(0.05,0,0,0.05,12,0)" xlink:href="#aU"/><use transform="matrix(0.05,0,0,0.05,17,0)" xlink:href="#bn"/><use transform="matrix(0.05,0,0,0.05,22.95,0)" xlink:href="#aX"/><use transform="matrix(0.05,0,0,0.05,26.899999999999995,0)" xlink:href="#aS"/><use transform="matrix(0.05,0,0,0.05,36.9,0)" xlink:href="#aT"/></g><path fill="#333" d="M232-93c-1 65-40 97-104 97C67 4 28-28 28-90v-158h33c8 89-33 224 67 224 102 0 64-133 71-224h33v155" id="dd"/><g id="au"><use transform="matrix(0.05,0,0,0.05,0,0)" xlink:href="#bt"/><use transform="matrix(0.05,0,0,0.05,12,0)" xlink:href="#aU"/><use transform="matrix(0.05,0,0,0.05,17,0)" xlink:href="#bn"/><use transform="matrix(0.05,0,0,0.05,22.95,0)" xlink:href="#aX"/><use transform="matrix(0.05,0,0,0.05,26.899999999999995,0)" xlink:href="#aS"/><use transform="matrix(0.05,0,0,0.05,36.9,0)" xlink:href="#aT"/><use transform="matrix(0.05,0,0,0.05,46.9,0)" xlink:href="#dd"/><use transform="matrix(0.05,0,0,0.05,59.85,0)" xlink:href="#aU"/><use transform="matrix(0.05,0,0,0.05,64.85,0)" xlink:href="#aX"/><use transform="matrix(0.05,0,0,0.05,68.8,0)" xlink:href="#bA"/><use transform="matrix(0.05,0,0,0.05,72.75,0)" xlink:href="#bu"/><use transform="matrix(0.05,0,0,0.05,78.7,0)" xlink:href="#bt"/><use transform="matrix(0.05,0,0,0.05,90.7,0)" xlink:href="#aU"/><use transform="matrix(0.05,0,0,0.05,95.7,0)" xlink:href="#bn"/><use transform="matrix(0.05,0,0,0.05,101.65,0)" xlink:href="#aX"/><use transform="matrix(0.05,0,0,0.05,105.60000000000001,0)" xlink:href="#aS"/><use transform="matrix(0.05,0,0,0.05,115.60000000000001,0)" xlink:href="#aT"/></g><g id="av"><use transform="matrix(0.05,0,0,0.05,0,0)" xlink:href="#aU"/><use transform="matrix(0.05,0,0,0.05,5,0)" xlink:href="#bm"/><use transform="matrix(0.05,0,0,0.05,15,0)" xlink:href="#bn"/><use transform="matrix(0.05,0,0,0.05,20.95,0)" xlink:href="#aT"/><use transform="matrix(0.05,0,0,0.05,30.950000000000003,0)" xlink:href="#aR"/><use transform="matrix(0.05,0,0,0.05,40.95,0)" xlink:href="#aU"/><use transform="matrix(0.05,0,0,0.05,45.95,0)" xlink:href="#bv"/><use transform="matrix(0.05,0,0,0.05,51.900000000000006,0)" xlink:href="#aW"/></g><path fill="#333" d="M115-194c53 0 69 39 70 98 0 66-23 100-70 100C84 3 66-7 56-30L54 0H23l1-261h32v101c10-23 28-34 59-34zm-8 174c40 0 45-34 45-75 0-40-5-75-45-74-42 0-51 32-51 76 0 43 10 73 51 73" id="de"/><g id="aw"><use transform="matrix(0.05,0,0,0.05,0,0)" xlink:href="#bt"/><use transform="matrix(0.05,0,0,0.05,12,0)" xlink:href="#bE"/><use transform="matrix(0.05,0,0,0.05,22,0)" xlink:href="#de"/><use transform="matrix(0.05,0,0,0.05,32,0)" xlink:href="#bt"/><use transform="matrix(0.05,0,0,0.05,44,0)" xlink:href="#aU"/><use transform="matrix(0.05,0,0,0.05,49,0)" xlink:href="#bn"/><use transform="matrix(0.05,0,0,0.05,54.95,0)" xlink:href="#aX"/><use transform="matrix(0.05,0,0,0.05,58.900000000000006,0)" xlink:href="#aS"/><use transform="matrix(0.05,0,0,0.05,68.9,0)" xlink:href="#aT"/><use transform="matrix(0.05,0,0,0.05,78.9,0)" xlink:href="#bu"/><use transform="matrix(0.05,0,0,0.05,84.85000000000001,0)" xlink:href="#aX"/><use transform="matrix(0.05,0,0,0.05,88.80000000000001,0)" xlink:href="#aS"/><use transform="matrix(0.05,0,0,0.05,98.80000000000001,0)" xlink:href="#aU"/></g><g id="ax"><use transform="matrix(0.05,0,0,0.05,0,0)" xlink:href="#bk"/><use transform="matrix(0.05,0,0,0.05,9,0)" xlink:href="#aU"/><use transform="matrix(0.05,0,0,0.05,14,0)" xlink:href="#bm"/><use transform="matrix(0.05,0,0,0.05,24,0)" xlink:href="#bn"/><use transform="matrix(0.05,0,0,0.05,29.950000000000003,0)" xlink:href="#aU"/><use transform="matrix(0.05,0,0,0.05,34.95,0)" xlink:href="#bv"/><use transform="matrix(0.05,0,0,0.05,40.900000000000006,0)" xlink:href="#aW"/></g><g id="ay"><use transform="matrix(0.05,0,0,0.05,0,0)" xlink:href="#bt"/><use transform="matrix(0.05,0,0,0.05,12,0)" xlink:href="#aU"/><use transform="matrix(0.05,0,0,0.05,17,0)" xlink:href="#bn"/><use transform="matrix(0.05,0,0,0.05,22.95,0)" xlink:href="#aX"/><use transform="matrix(0.05,0,0,0.05,26.899999999999995,0)" xlink:href="#aS"/><use transform="matrix(0.05,0,0,0.05,36.9,0)" xlink:href="#aT"/></g><path fill="#333" d="M68-38c1 34 0 65-14 84H32c9-13 17-26 17-46H33v-38h35" id="df"/><g id="az"><use transform="matrix(0.05,0,0,0.05,0,0)" xlink:href="#bk"/><use transform="matrix(0.05,0,0,0.05,9,0)" xlink:href="#aU"/><use transform="matrix(0.05,0,0,0.05,14,0)" xlink:href="#bm"/><use transform="matrix(0.05,0,0,0.05,24,0)" xlink:href="#bn"/><use transform="matrix(0.05,0,0,0.05,29.950000000000003,0)" xlink:href="#aU"/><use transform="matrix(0.05,0,0,0.05,34.95,0)" xlink:href="#df"/></g><g id="aA"><use transform="matrix(0.05,0,0,0.05,0,0)" xlink:href="#aX"/><use transform="matrix(0.05,0,0,0.05,3.95,0)" xlink:href="#aS"/><use transform="matrix(0.05,0,0,0.05,13.949999999999998,0)" xlink:href="#aU"/></g><g id="aB"><use transform="matrix(0.05,0,0,0.05,0,0)" xlink:href="#bA"/><use transform="matrix(0.05,0,0,0.05,3.95,0)" xlink:href="#aR"/><use transform="matrix(0.05,0,0,0.05,13.949999999999998,0)" xlink:href="#aS"/><use transform="matrix(0.05,0,0,0.05,23.95,0)" xlink:href="#aT"/><use transform="matrix(0.05,0,0,0.05,33.95,0)" xlink:href="#aU"/><use transform="matrix(0.05,0,0,0.05,38.95,0)" xlink:href="#aV"/><use transform="matrix(0.05,0,0,0.05,48.95,0)" xlink:href="#bv"/><use transform="matrix(0.05,0,0,0.05,54.900000000000006,0)" xlink:href="#aW"/></g><g id="aC"><use transform="matrix(0.05,0,0,0.05,0,0)" xlink:href="#bt"/><use transform="matrix(0.05,0,0,0.05,12,0)" xlink:href="#aU"/><use transform="matrix(0.05,0,0,0.05,17,0)" xlink:href="#bn"/><use transform="matrix(0.05,0,0,0.05,22.95,0)" xlink:href="#aX"/><use transform="matrix(0.05,0,0,0.05,26.899999999999995,0)" xlink:href="#aS"/><use transform="matrix(0.05,0,0,0.05,36.9,0)" xlink:href="#aT"/></g></defs></g></svg>